<svg xmlns="http://www.w3.org/2000/svg" xmlns:xlink="http://www.w3.org/1999/xlink" id="Layer_1" x="0" y="0" version="1.1" viewBox="0 0 512 512" xml:space="preserve" style="enable-background:new 0 0 512 512"><style type="text/css">.st0{fill:#fdfdfd}.st1{fill:#090909}.st2{fill:#f6f6f6}</style><g><g><path d="M11.9,489c0-154.2,0.2-308.4-0.4-462.6c-0.1-13.6,4-14.9,15.7-14.8c47.6,0.7,95.2,0.3,142.8,0.3 c-3.3,2.9-7,5.4-9.8,8.6c-8.8,10.1-10.4,21.4-2.8,32.7c7.5,11.1,18.2,15,31.1,10.5c12.5-4.4,19.3-16.4,17.3-29.5 c-1.9-12.3-10.6-18.1-21-22.4c104.9,0,209.7,0.1,314.6-0.3c8.9,0,10.7,1.8,10.7,10.7c-0.3,156.1-0.3,312.1,0,468.2 c0,8.9-1.8,10.7-10.7,10.7c-159-0.3-318.1-0.2-477.1-0.5c-3.6,0-11.8,4.8-10.4-5.7c6.3-0.1,11.1-3.9,16.2-6.7 c49.4-27.6,98.6-55.4,148-83c4.1-2.3,8.8-8,13.1-4.8c4.6,3.4,1,10.2,1,15.5c0,6.8-5.9,8.3-10.2,11.5c-5.5,4-13.9,4.7-16.7,13.6 c10,1.5,15.1-8,23.4-8.4c3.3,7.6-5.4,16.1,1.1,23.7c5.2-2.6,5.3-7.3,5-10.6c-1.4-16.2,8.4-23,21.1-30 c87.3-48.3,174.1-97.2,261.1-146c11.3-6.3,22.5-12.8,29.6-24.2c1.2-1.9,3.4-4.3,0.7-6.5c-2.8-2.3-4.5,0.1-5.8,2.1 c-8.4,13.2-22.2,19.5-35.1,26.8c-41.1,23.1-82.7,45.3-123.2,69.4c-14.2,8.5-24.8,8.2-36.8-3.1c17.2-13.3,42.4-18.2,49.4-42.9 c-13.3,17.1-33.1,24.6-50.8,35.1c-6.8,4.1-10,4.3-11.3-5c-3.3-23.1-8.2-45.9-11.3-69c-4.9-36.8-4.9-37.1-42-37.5 c-4.5,0-11.4,3.2-13.1-2.6c-1.5-5-1-11.8,4.4-16.1c5.1-4.1,8.4-10,4.7-15.6c-3.6-5.6-3.8-11.9-6.6-20.1 c-6.1,15.5-17.9,10.4-27.8,11.3c-6.6,0.6-11.4-1-9-8.7c2.1-6.8-4.9-21,9-18.8c29.3,4.6,45.4-9.4,56.5-33.6 c0.2-0.5,1.5-0.5,3.1-1.1c25.9,55.1,51.9,110.1,78.5,166.7c6.6-8.1,1.5-11.9-0.3-15.8c-23.1-49.9-46.5-99.7-69.8-149.6 c-1.7-3.6-5.7-8.8-4.5-10.6c13.7-21.1-12.7-20.6-16.9-31.9c-0.1-0.3-3-0.3-3.6,0.4c-0.7,0.8-0.7,2.6-0.6,3.9 c2.9,24.6-14.5,44.6-37.8,44.2c-7.3-0.1-10.9-1-9.5-9.8c2.3-14.4-3.4-25.5-17.5-30.8c-12.9-4.8-23.2-0.1-31.2,10.6 c-1.8,2.5-2.3,7.1-7.4,3.9c-9.5-5.9-20.3-3.7-30.6-4.2C89.5,86,88,87.5,87.2,106c-1.1,23.3-2.1,46.7-3.1,70 c-1.7,40.7-1.7,40.7,38.2,44.2c3.1,0.3,8.6-1.4,8.5,3.2c-0.6,16.7,14.2,30.3,8.7,48.2c-2.4,7.8-1.9,16.8-1.5,25.2 c0.7,12.5-3.3,22.9-10.4,33.1c-14.6,21.1-26.1,44.5-46.3,61.5c-9.7,8.1-11.2,15.9,1.3,24c8.5,5.5,15.7,13.2,24.5,20.9 C74.2,454.5,43,471.8,11.9,489z" class="st0"/><path d="M11.9,489c31.1-17.3,62.2-34.5,95.2-52.8c-8.9-7.7-16-15.4-24.5-20.9c-12.5-8-11-15.9-1.3-24 c20.2-17,31.7-40.4,46.3-61.5c7.1-10.2,11-20.6,10.4-33.1c-0.4-8.4-0.9-17.4,1.5-25.2c5.4-17.9-9.3-31.4-8.7-48.2 c0.2-4.6-5.3-3-8.5-3.2c-39.9-3.5-39.9-3.5-38.2-44.2c1-23.3,2-46.7,3.1-70C88,87.5,89.5,86,108.5,86.8 c10.3,0.4,21.1-1.7,30.6,4.2c5.2,3.2,5.6-1.4,7.4-3.9c8-10.7,18.3-15.4,31.2-10.6c14.1,5.2,19.7,16.4,17.5,30.8 c-1.4,8.8,2.2,9.6,9.5,9.8c23.3,0.4,40.8-19.6,37.8-44.2c-0.2-1.3-0.2-3.1,0.6-3.9c0.6-0.7,3.5-0.7,3.6-0.4 c4.2,11.3,30.6,10.7,16.9,31.9c-1.2,1.8,2.8,7,4.5,10.6c23.3,49.8,46.7,99.7,69.8,149.6c1.8,3.9,6.9,7.7,0.3,15.8 c-26.6-56.6-52.6-111.7-78.5-166.7c-1.6,0.5-2.8,0.6-3.1,1.1c-11.1,24.2-27.2,38.2-56.5,33.6c-14-2.2-6.9,12-9,18.8 c-2.4,7.7,2.3,9.3,9,8.7c10-0.9,21.7,4.2,27.8-11.3c2.8,8.2,2.9,14.5,6.6,20.1c3.7,5.6,0.4,11.5-4.7,15.6 c-5.4,4.3-5.9,11.1-4.4,16.1c1.7,5.8,8.6,2.5,13.1,2.6c37,0.4,37,0.7,42,37.5c3.1,23.1,8,46,11.3,69c1.3,9.3,4.5,9.1,11.3,5 c17.7-10.6,37.5-18.1,50.8-35.1c-7,24.6-32.1,29.6-49.4,42.9c12,11.3,22.7,11.6,36.8,3.1c40.5-24.1,82.1-46.4,123.2-69.4 c12.9-7.3,26.7-13.5,35.1-26.8c1.3-2.1,3-4.5,5.8-2.1c2.6,2.2,0.5,4.6-0.7,6.5c-7.1,11.4-18.3,17.9-29.6,24.2 c-87,48.8-173.9,97.7-261.1,146c-12.6,7-22.5,13.7-21.1,30c0.3,3.4,0.2,8.1-5,10.6c-6.6-7.6,2.2-16-1.1-23.7 c-8.3,0.4-13.4,9.9-23.4,8.4c2.7-9,11.1-9.7,16.7-13.6c4.3-3.1,10.2-4.6,10.2-11.5c0-5.3,3.6-12-1-15.5c-4.3-3.2-9,2.5-13.1,4.8 c-49.4,27.6-98.6,55.4-148,83c-5.1,2.9-9.9,6.7-16.2,6.7C11.9,493,11.9,491,11.9,489z M191.9,251.8c-12.8-3.9-17.7,2.3-16.3,17.3 c1,10.3-1,20.8-0.6,31.2c0.6,17.5-4.5,32.7-14.8,47c-12.1,16.9-22.1,35.2-34.1,52.2c-5.8,8.2-1.9,14.6,1.9,20.2 c4.6,6.8,9.1-1,12.9-2.9c13.3-6.6,25.6-15.2,39.1-21.3c11.6-5.2,15.1-13.5,16.5-25.1c3.9-33.5,8.5-66.8,13.1-100.2 C212.2,251.8,212.4,251.9,191.9,251.8z M201.4,383.1c17.9-10,32.8-18.6,48.1-26.7c5.2-2.8,6.5-6.3,6.5-11.9 c-0.1-29.5-9.4-57.6-12.2-86.8c-1-10.1-10.2-4.8-15.8-5.7c-5.2-0.9-9.3,0.1-10.2,7.2C212.7,299.5,207.2,339.8,201.4,383.1z M197.7,417.3c31-17.4,60.8-34.2,90.7-51c-20.7-2.6-41.1-6.9-58.4,8.4c-3.3,2.9-7.5,5.1-11.6,6.5 C201.4,386.7,196.2,398.9,197.7,417.3z M201.4,215c7.9-0.7,17.6,3.4,17-10.1c-0.5-11.9-9.5-5.9-14.2-6c-6.3-0.1-16.8-5.6-16.8,8.6 C187.5,221,197.6,212.1,201.4,215z" class="st1"/><path d="M184.9,11.9c10.3,4.3,19.1,10.1,21,22.4c2,13-4.9,25.1-17.3,29.5c-12.9,4.5-23.6,0.6-31.1-10.5 c-7.6-11.3-6.1-22.6,2.8-32.7c2.8-3.3,6.5-5.8,9.8-8.6C174.9,11.9,179.9,11.9,184.9,11.9z" class="st1"/><path d="M191.9,251.8c20.5,0.1,20.3,0,17.8,18.3c-4.6,33.4-9.2,66.8-13.1,100.2c-1.4,11.6-4.9,19.9-16.5,25.1 c-13.5,6.1-25.8,14.7-39.1,21.3c-3.8,1.9-8.3,9.7-12.9,2.9c-3.8-5.6-7.7-12-1.9-20.2c12-17,22-35.4,34.1-52.2 c10.3-14.3,15.3-29.5,14.8-47c-0.3-10.4,1.6-20.9,0.6-31.2C174.2,254.1,179.1,247.9,191.9,251.8z" class="st2"/><path d="M201.4,383.1c5.8-43.3,11.3-83.6,16.4-123.9c0.9-7.1,5-8.1,10.2-7.2c5.6,0.9,14.8-4.3,15.8,5.7 c2.8,29.1,12.1,57.3,12.2,86.8c0,5.6-1.3,9.2-6.5,11.9C234.2,364.5,219.3,373.1,201.4,383.1z" class="st2"/><path d="M197.7,417.3c-1.4-18.4,3.8-30.7,20.7-36.1c4.2-1.3,8.4-3.6,11.6-6.5c17.3-15.3,37.7-11.1,58.4-8.4 C258.5,383.1,228.6,399.9,197.7,417.3z" class="st2"/><path d="M201.4,215c-3.8-3-13.9,6-13.9-7.4c0-14.3,10.5-8.8,16.8-8.6c4.7,0.1,13.6-5.9,14.2,6 C219,218.4,209.3,214.4,201.4,215z" class="st0"/></g></g></svg>