<svg xmlns="http://www.w3.org/2000/svg" xmlns:xlink="http://www.w3.org/1999/xlink" id="Layer_1" x="0" y="0" enable-background="new 0 0 512 512" version="1.1" viewBox="0 0 512 512" xml:space="preserve"><g><g><path fill="#FFF" d="M7.1,504.8c0-165.9,0-331.8,0-497.7c165.9,0,331.8,0,497.7,0c0,165.9,0,331.8,0,497.7 C338.9,504.8,173,504.8,7.1,504.8z M159.8,252.3c0,37.4,0,74.8,0,112.2c0,4.7,0.8,9.1,5.3,11.6c4.5,2.5,8.6,1.6,13-1 c23.8-14.3,47.8-28.4,71.6-42.7c2.4-1.4,4-1.3,6.3,0c24.3,14.5,48.6,28.9,72.9,43.3c2.7,1.6,5.4,2.3,8.4,1.5 c5.8-1.4,8.5-5.3,8.5-12.9c0-74.9,0-149.8,0-224.7c0-6.5-1.9-8.4-8.5-8.4c-56.3,0-112.6,0-169,0c-6.5,0-8.5,2-8.5,8.4 C159.8,177.3,159.8,214.8,159.8,252.3z"/><path d="M159.8,252.3c0-37.5,0-75,0-112.5c0-6.4,2.1-8.4,8.5-8.4c56.3,0,112.6,0,169,0c6.6,0,8.5,1.9,8.5,8.4 c0,74.9,0,149.8,0,224.7c0,7.6-2.6,11.5-8.5,12.9c-3.1,0.7-5.7,0.1-8.4-1.5c-24.3-14.5-48.6-28.8-72.9-43.3c-2.3-1.4-4-1.5-6.3,0 c-23.8,14.3-47.8,28.3-71.6,42.7c-4.4,2.6-8.5,3.5-13,1c-4.5-2.5-5.3-6.9-5.3-11.6C159.8,327.1,159.8,289.7,159.8,252.3z M171.9,364.4c1.5-0.9,2.7-1.4,3.8-2.1c24-14.2,48-28.4,72-42.8c3.6-2.1,6.5-2.2,10.2,0c24,14.4,48.2,28.7,72.3,42.9 c1.1,0.6,2.2,1.2,3.4,1.9c0-73.9,0-147.3,0-220.8c-54,0-107.7,0-161.6,0C171.9,217.2,171.9,290.5,171.9,364.4z"/><path fill="#FFF" d="M171.9,364.4c0-73.9,0-147.2,0-220.8c53.9,0,107.6,0,161.6,0c0,73.5,0,146.9,0,220.8 c-1.3-0.7-2.4-1.3-3.4-1.9c-24.1-14.3-48.2-28.5-72.3-42.9c-3.6-2.2-6.6-2.1-10.2,0c-23.9,14.3-48,28.5-72,42.8 C174.6,363,173.4,363.6,171.9,364.4z M246.8,230.6c0,1.6,0,2.9,0,4.1c0,10.2,0,20.4,0,30.5c0,4.6,2.2,7.3,5.9,7.4 c3.6,0.1,6-2.7,6-7.2c0-5.6,0-11.1,0-16.7c0-5.9,0-11.8,0-18.1c1.6,0,2.9,0,4.2,0c9.9,0,19.9,0,29.8,0c5.1,0,8-2.2,8.1-6 c0.1-3.8-2.8-6-7.9-6c-10.1,0-20.1,0-30.2,0c-1.2,0-2.5-0.1-4-0.2c0-1.7,0-3,0-4.2c0-9.9,0-19.9,0-29.8c0-5.1-2.2-7.9-6.1-7.9 c-3.7,0.1-5.8,2.8-5.9,7.7c0,10.2,0,20.4,0,30.5c0,1.2-0.1,2.5-0.2,3.9c-1.7,0-3,0-4.3,0c-10.3,0-20.6,0-30.9,0 c-4,0-6.6,2.5-6.6,5.9c0,3.4,2.6,6,6.5,6.1c5.4,0.1,10.9,0,16.3,0C233.8,230.6,240.1,230.6,246.8,230.6z"/><path d="M246.8,230.6c-6.7,0-13,0-19.2,0c-5.4,0-10.9,0.1-16.3,0c-3.9-0.1-6.5-2.7-6.5-6.1c0-3.4,2.7-5.9,6.6-5.9 c10.3,0,20.6,0,30.9,0c1.3,0,2.6,0,4.3,0c0.1-1.4,0.2-2.6,0.2-3.9c0-10.2,0-20.4,0-30.5c0-4.9,2.1-7.6,5.9-7.7 c3.9-0.1,6.1,2.7,6.1,7.9c0,9.9,0,19.9,0,29.8c0,1.3,0,2.6,0,4.2c1.5,0.1,2.8,0.2,4,0.2c10.1,0,20.1,0,30.2,0c5.1,0,8,2.2,7.9,6 c-0.1,3.8-3,6-8.1,6c-9.9,0-19.9,0-29.8,0c-1.3,0-2.5,0-4.2,0c0,6.3,0,12.2,0,18.1c0,5.6,0,11.1,0,16.7c0,4.5-2.4,7.3-6,7.2 c-3.6-0.1-5.9-2.8-5.9-7.4c0-10.2,0-20.4,0-30.5C246.8,233.4,246.8,232.2,246.8,230.6z"/></g></g></svg>