<?xml version="1.0" encoding="utf-8"?>
<!-- Generator: Adobe Illustrator 21.0.2, SVG Export Plug-In . SVG Version: 6.00 Build 0)  -->
<svg version="1.1" id="Layer_1" xmlns="http://www.w3.org/2000/svg" xmlns:xlink="http://www.w3.org/1999/xlink" x="0px" y="0px"
	 viewBox="0 0 512 512" enable-background="new 0 0 512 512" xml:space="preserve">
<g>
	<g>
		<path fill="#FCFCFC" d="M15.5,260.5c0-81.2,0.2-162.4-0.3-243.6C15.1,7.1,17.8,6,26.6,6c154.1,0.3,308.3,0.3,462.4-0.1
			c9.8,0,10.9,2.6,10.9,11.3c-0.3,162.4-0.3,324.8,0.1,487.2c0,9.8-2.6,10.9-11.3,10.9c-154.1-0.3-308.3-0.3-462.4,0.1
			c-9.8,0-10.9-2.6-10.9-11.3C15.7,422.9,15.5,341.7,15.5,260.5z M235.2,83.2c-3,1.6-2.3,4.6-2.4,7.2c-22.7,0.1-45.3,0.2-68,0.4
			c-17.5,0.2-27.8,8.2-28.3,21.7c-0.5,14.4,9.3,22.5,28.4,22.7c15.5,0.2,30.9,0,46.4-0.1c0.1,1.6,0.3,3.3,0.4,4.9
			c-8.4,19.4-17.2,38.7-24.9,58.3c-5.4,13.7-0.7,22.3,12.5,28.7c13.8,6.8,24.3-0.7,38.5-10c-10.1,36.7,11.2,56,31.8,76.2
			c23.6,23.2,46.3,47.3,69.8,70.5c7.8,7.7,11.9,15.4,11.4,27c-1.1,22.2-0.4,44.5-0.3,66.7c0.1,13.6,6.8,22.8,19.7,26.3
			c13.2,3.6,23-2.5,30.2-13.5c3.8-5.9,4.9-12.3,4.9-19.2c-0.1-34.1-0.2-68.3,0.1-102.4c0.1-12.1-4-21.8-12.7-30.3
			c-18.1-17.7-35.3-36.4-53.8-53.6c-8.5-7.9-6.9-12.4,0.3-19.5c25.8-25.4,51.2-51,76.5-76.9c21.4-21.9,17.6-68.4-23.1-75.9
			c-16-3-32-0.6-47.9-1.8c-0.1-1.3-0.3-2.7-0.4-4c3.6-6.1,5-12.8,1.8-19.2c-8-16-16.1-32.1-25.4-47.4c-5.2-8.6-14-9.4-23.1-4.7
			C268.3,30.4,242.9,48.7,235.2,83.2z M114.4,460.3c6.9-0.1,13.5-1.6,18.5-6.6c43.2-43.5,86.2-87.2,129.3-130.8
			c2.5-2.5,5.4-4.9,1.5-8.7c-11.5-11-21.2-26.5-34.8-31.6c-7.7-2.8-17.8,15.6-27.1,24.2c-1.1,1.1-2.3,2.1-3.3,3.2
			c-33.6,34.1-67.2,68.3-100.9,102.4c-9,9.1-11.2,19.7-7,31.2C94.5,454.4,103.1,459.6,114.4,460.3z M449.7,106
			c24.9,0.2,45.3-20.1,45.3-45c0-23.7-20.4-44.8-43.9-45.4c-24.4-0.7-45.4,19.9-45.9,44.8C404.8,85.5,424.6,105.8,449.7,106z
			 M119.6,508.1c8.2-1.4,14.9-5,20.7-10.5c3.4-3.2,3.5-6.4-0.3-8.9c-3.2-2.1-5.3-9.6-10.8-3.8c-9.4,10.1-14.9,2.7-21.3-3.7
			c-23.2-23.6-46.6-46.9-69.7-70.5c-4.4-4.5-7.1-5.6-12.4-0.6c-5.5,5.1-4,7.8,0.4,12.2c26,25.9,51.7,51.9,77.5,78
			C108.3,504.9,113.6,507.7,119.6,508.1z M385.1,512c17,0,34,0.1,51.1,0c18.5-0.1,26.1-7.2,27.8-25.5c0.4-4.1,1.8-9.2-4.8-8.5
			c-4.1,0.4-11.8-4.1-11.6,5c0.3,12.4-7.4,12.6-16.3,12.6c-33-0.1-66,0-99-0.1c-5.5,0-9.6-0.3-9.7,7.6c-0.1,8.2,3.3,9.1,10,9
			C350,511.8,367.5,512,385.1,512z"/>
		<path fill="#020202" d="M344.4,90.6c15.9,1.2,31.9-1.1,47.9,1.8c40.7,7.6,44.5,54,23.1,75.9c-25.2,25.9-50.7,51.6-76.5,76.9
			c-7.2,7.1-8.8,11.6-0.3,19.5c18.6,17.2,35.7,35.9,53.8,53.6c8.7,8.5,12.8,18.2,12.7,30.3c-0.2,34.1-0.1,68.3-0.1,102.4
			c0,6.9-1.1,13.3-4.9,19.2c-7.2,11-17,17.1-30.2,13.5c-12.9-3.5-19.6-12.8-19.7-26.3c-0.1-22.2-0.8-44.5,0.3-66.7
			c0.6-11.6-3.6-19.3-11.4-27c-23.5-23.3-46.2-47.4-69.8-70.5c-20.5-20.2-41.9-39.5-31.8-76.2c-14.2,9.3-24.8,16.7-38.5,10
			c-13.2-6.5-17.9-15-12.5-28.7c7.8-19.7,16.6-38.9,24.9-58.3c29.1-0.1,58.3-0.2,87.4-0.3c-7.1,13.6-21.4,22-27,34.9
			c12.6-12.3,25.9-25.4,39.7-38.8c-3.7,0-7.2,0-10.7,0c-29.9-4.5-59.8-3.3-89.7-0.7c-15.5,0-30.9,0.3-46.4,0.1
			c-19.1-0.3-29-8.3-28.4-22.7c0.5-13.5,10.8-21.5,28.3-21.7c22.7-0.2,45.3-0.3,68-0.4c13.9,5.9,28.4,2.4,42.5,2.3
			C298.3,92.5,321.5,95.9,344.4,90.6z M267,183.3c2.5-1.5,6.1-3.4,3-6.2c-1.9-1.7-3.5,2.3-5,4c-1.1,1.4-2.3,2.8-3.4,4.2
			C264.1,186.6,266.2,186.6,267,183.3z"/>
		<path fill="#020202" d="M114.4,460.3c-11.3-0.7-20-5.9-23.9-16.6c-4.2-11.5-2-22.1,7-31.2c33.7-34.1,67.3-68.3,100.9-102.4
			c1.1-1.1,2.2-2.2,3.3-3.2c9.3-8.6,19.4-27.1,27.1-24.2c13.6,5.1,23.3,20.6,34.8,31.6c4,3.8,1.1,6.1-1.5,8.7
			c-43.1,43.6-86.2,87.3-129.3,130.8C127.9,458.7,121.3,460.2,114.4,460.3z"/>
		<path fill="#020202" d="M449.7,106c-25.1-0.2-44.9-20.5-44.4-45.7c0.4-24.9,21.5-45.4,45.9-44.8c23.5,0.6,43.9,21.7,43.9,45.4
			C495,85.9,474.6,106.2,449.7,106z"/>
		<path fill="#020202" d="M235.2,83.2c7.7-34.5,33.1-52.8,62.1-67.8c9.1-4.7,17.9-3.9,23.1,4.7c9.3,15.3,17.4,31.4,25.4,47.4
			c3.2,6.3,1.8,13-1.8,19.2c-32.1,0.1-64.1,0.2-96.2,0.2C243.4,86.8,238.2,88.4,235.2,83.2z"/>
		<path fill="#020202" d="M119.6,508.1c-6.1-0.5-11.3-3.2-15.9-7.8c-25.7-26.1-51.5-52.2-77.5-78c-4.4-4.4-5.9-7.1-0.4-12.2
			c5.3-4.9,8-3.9,12.4,0.6c23.1,23.6,46.5,46.9,69.7,70.5c6.4,6.5,11.9,13.9,21.3,3.7c5.5-5.9,7.6,1.7,10.8,3.8
			c3.7,2.5,3.7,5.7,0.3,8.9C134.5,503.1,127.9,506.7,119.6,508.1z"/>
		<path fill="#020202" d="M385.1,512c-17.5,0-35.1-0.2-52.6,0.1c-6.8,0.1-10.2-0.8-10-9c0.1-7.9,4.2-7.7,9.7-7.6c33,0.1,66,0,99,0.1
			c8.9,0,16.6-0.2,16.3-12.6c-0.2-9.1,7.5-4.6,11.6-5c6.6-0.7,5.2,4.4,4.8,8.5c-1.7,18.2-9.4,25.4-27.8,25.5
			C419.1,512.1,402.1,512,385.1,512z"/>
		<path fill="#595959" d="M235.2,83.2c3,5.2,8.2,3.6,12.6,3.6c32.1,0,64.1-0.1,96.2-0.2c0.1,1.3,0.3,2.7,0.4,4
			c-22.9,5.3-46,1.8-69,2c-14.1,0.1-28.7,3.6-42.5-2.3C232.9,87.7,232.2,84.8,235.2,83.2z"/>
		<path fill="#595959" d="M299.1,139.7c-29.1,0.1-58.3,0.2-87.4,0.3c-0.1-1.6-0.3-3.3-0.4-4.9c29.9-2.7,59.8-3.8,89.7,0.7
			C301.7,137.8,301.1,139.1,299.1,139.7z"/>
		<path fill="#FCFCFC" d="M299.1,139.7c2-0.6,2.7-1.9,1.9-3.9c3.5,0,7.1,0,10.7,0c-13.7,13.4-27.1,26.5-39.7,38.8
			C277.6,161.7,292,153.3,299.1,139.7z"/>
		<path fill="#FCFCFC" d="M265,181.1c1.5-1.8,3.1-5.7,5-4c3.1,2.8-0.5,4.7-3,6.2C266.4,182.5,265.7,181.8,265,181.1z"/>
		<path fill="#FCFCFC" d="M267,183.3c-0.8,3.4-2.9,3.3-5.5,2c1.1-1.4,2.3-2.8,3.4-4.2C265.7,181.8,266.4,182.5,267,183.3z"/>
	</g>
</g>
<g>
	<g>
		<path d="M249,89.4c29.7,0.5,59.3,0.3,89-0.4c1.9,0,1.9-3,0-3c-29.7,0.7-59.3,0.9-89,0.4C247.1,86.4,247.1,89.4,249,89.4L249,89.4z
			"/>
	</g>
</g>
<g>
	<g>
		<path d="M339.3,88.8c0.7,0,1.3,0,2,0c0.8,0,1.5-0.7,1.5-1.5c0-0.8-0.7-1.5-1.5-1.5c-0.7,0-1.3,0-2,0c-0.8,0-1.5,0.7-1.5,1.5
			C337.9,88.1,338.5,88.8,339.3,88.8L339.3,88.8z"/>
	</g>
</g>
<g>
	<g>
		<path d="M341,87.3c0.2,1,0.3,1.9,0.5,2.9c0.5-0.5,1-1,1.5-1.5c-8.6-0.9-17,2.6-25.6,2.7c-9.3,0.1-18.7-0.4-28.1-0.6
			c-9.1-0.2-18.2-0.4-27.3-0.7c-8.3-0.2-19.4,1.3-26.6-3.6c-0.6-0.4-1.3-0.2-1.8,0.2c-0.9,0.8-1,1-1.3,2.1c1,0.1,2,0.3,2.9,0.4
			c0.7-1.5,1.3-2.9,2-4.4c-0.9-0.4-1.7-0.7-2.6-1.1c0,2.8-2.8,5.6-0.9,8.4c1.6,2.3,4.6,1.9,7,1.4c1.5-0.3,1.4-2.5,0-2.9
			c-1-0.5-2-1.1-3-1.6c-0.6,0.8-1.2,1.6-1.8,2.4c3.7,1.6,7.3,2.3,11.3,2.4c2.6,0,14.1-2.3,15.5,0.3c0.4-0.8,0.9-1.5,1.3-2.3
			c-4.2,0.5-9.3,1.6-13.4,0.3c-4.4-1.3-8.6-4.7-12.5-7.1c-0.3,0.9-0.5,1.9-0.8,2.8c4.4-0.3,7.5,3.2,11.8,0.9
			c-0.6-0.8-1.2-1.6-1.8-2.4c-0.4,0.3-0.8,0.7-1.3,1c-0.8,0.7-0.4,1.8,0.3,2.4c4.5,3.4,10.9,1.5,16.1,1.2c7.7-0.4,15.3,0.2,22.9,0.5
			c7.8,0.3,15.6,0.5,23.4,0.4c3.9,0,7.8-0.1,11.7-0.3c2.3-0.1,4.5-0.2,6.8-0.3c0.7,0,6.5-0.4,4-0.3c0.1,1,0.3,2,0.4,2.9
			c2.8-0.6,5.6-1.2,8.5-1.8c-0.5-0.8-1-1.7-1.5-2.5c-8.8,8.4-18.9,15.3-27.1,24.3c-3.8,4.1-6.5,8.6-9.5,13.2
			c-1.1,1.7-3.7,3.8-4.2,5.9c-0.2,0.7,0.8,4.4-0.1,4.4c0.4,0.8,0.9,1.5,1.3,2.3c0.8-1.7,1.1-2.9,0.9-4.8c-0.1-0.9-0.6-1.4-1.5-1.5
			c-13.2-0.9-26.5-1.2-39.7-1.3c-12.8-0.1-25.8-0.6-38.5,1.1c-0.8,0.1-1.6,0.6-1.5,1.5c0.2,3.1,3,3.1,5.5,3
			c6.9-0.1,13.8-0.3,20.7-0.4c13.5-0.3,26.9-0.6,40.4-0.8c1.9,0,1.9-2.9,0-3c-10.8-0.7-21.5,0.7-32.2,1.7c-10.6,1-21.3,1.5-32,1.6
			c-1.5,0-2,2-0.8,2.8c3.1,2,7.5,1.4,11.1,1.4c5.2-0.1,10.5-0.7,15.7-1c10.3-0.7,20.3,0.3,30.6,1c5,0.3,10.1,0.5,15.1,0
			c1.9-0.2,4.8-0.2,5.6-2.5c1.8-5.4-11.5-4.6-14.1-4.9c-1.4-0.2-1.9,1.7-1.1,2.6c1.9,2,8.8,1,9.2,2.6c0.5-0.6,1-1.3,1.4-1.9
			c-9.2-0.4-18.5-1.1-27.7-1.2c-4,0-6.6,1.3-4.1,5.6c0.4-0.8,0.9-1.5,1.3-2.3c-7.6-0.5-15.2-1.1-22.8-1.6c-1.9-0.1-1.9,2.9,0,3
			c7.6,0.5,15.2,1.1,22.8,1.6c1.2,0.1,1.8-1.3,1.3-2.3c-1.2-2.2,4.1-0.9,5.5-0.9c2.6,0.1,5.3,0.2,7.9,0.3c5.3,0.2,10.5,0.4,15.8,0.7
			c1,0,1.7-1,1.4-1.9c-1.4-5.6-7.2-1.1-9.9-3.9c-0.4,0.9-0.7,1.7-1.1,2.6c0.8,0.1,9.4,0.8,9.5,1.1c0,0.6-8.7,0.6-9.4,0.6
			c-6.6-0.1-13.2-0.9-19.9-1.3c-6.5-0.4-12.8-0.3-19.3,0.2c-3.6,0.3-7.2,0.6-10.8,0.8c-3.4,0.2-9.5,1.1-12.5-0.8
			c-0.3,0.9-0.5,1.9-0.8,2.8c10.7-0.1,21.4-0.6,32-1.6c10.7-1,21.4-2.4,32.2-1.7c0-1,0-2,0-3c-5.3,0.1-63.5,1.8-63.6,1.2
			c-0.5,0.5-1,1-1.5,1.5c12.7-1.7,25.7-1.1,38.5-1.1c13.2,0.1,26.5,0.4,39.7,1.3c-0.5-0.5-1-1-1.5-1.5c-0.1,1.1-0.3,2.2-0.4,3.3
			c-0.5,1,0.1,2.2,1.3,2.3c3.5,0.1,3.9-2.1,3.8-5c-1-1-0.8-2.1,0.6-3.4c0.3-0.4,0.7-0.8,1-1.2c0.6-1,1.3-1.9,2-2.9
			c2.1-3.3,4-6.5,6.5-9.5c8.5-10.1,19.7-17.6,29.2-26.7c1.1-1.1-0.1-2.8-1.5-2.5c-2.8,0.6-5.6,1.2-8.5,1.8c-1.7,0.4-1.3,3,0.4,2.9
			c3.4-0.1,7.2-4.2,2.5-5.9c-1.5-0.6-3.9,0.1-5.5,0.2c-2.6,0.2-5.2,0.3-7.8,0.4c-4.9,0.2-9.7,0.3-14.6,0.3c-9.9,0-19.8-0.4-29.7-0.9
			c-4.9-0.2-9.7-0.3-14.6,0c-4.3,0.3-9.9,1.9-13.6-0.9c0.1,0.8,0.2,1.6,0.3,2.4c0.4-0.3,0.8-0.7,1.3-1c1.4-1.1-0.4-3.1-1.8-2.4
			c-3,1.6-7-1.5-10.3-1.3c-1.5,0.1-2.1,2-0.8,2.8c4.1,2.5,8.5,6.1,13,7.6c4.3,1.4,10,0.1,14.4-0.4c1.1-0.1,1.9-1.2,1.3-2.3
			c-1.7-3.2-5.4-2.5-8.6-2.3c-6.5,0.5-13.1,1.3-19.3-1.4c-1.4-0.6-3.2,1.2-1.8,2.4c1.4,1.2,2.6,1.9,4.4,2.4c0-1,0-1.9,0-2.9
			c-5.3,1.2-2.2-4.2-2.3-6.9c0-1.3-1.6-2-2.6-1.1c-1.9,2-2.7,3.7-2.9,6.5c-0.1,1.7,2.5,2,2.9,0.4c0.2-0.3,0.4-0.5,0.5-0.8
			c-0.6,0.1-1.2,0.2-1.8,0.2c6.3,4.3,14.1,3.7,21.3,3.9c10.1,0.2,20.1,0.5,30.2,0.7c9.7,0.2,19.4,0.6,29.1,0.7
			c4.2,0.1,8.4-0.1,12.6-0.8c5.3-0.9,10.4-2.4,15.9-1.9c0.8,0.1,1.5-0.8,1.5-1.5c0-2,0-1.8-0.6-3.7C343.3,84.7,340.4,85.5,341,87.3
			L341,87.3z"/>
	</g>
</g>
<g>
	<g>
		<path d="M214.1,139.6c-1.3-1-1.1-2.9-0.9-4.3c-0.6,0.5-1.3,1-1.9,1.4c0.3,0.1,1.1,1.8,1.3,2c0.6,0.9,1.1,1.7,1.7,2.6
			c1.1,1.6,3.5,0.2,2.6-1.5c-0.5-1-0.5-1.5-0.4-2.5c0.1-0.5,0.2-0.9,0.2-1.4c-0.1-1-0.6-1.8-1.4-2.3c-1.3-0.7-2.9,0.8-2.1,2.1
			c1.6,2.5,3.6,4.7,5.9,6.6c1.3,1,3.3-0.2,2.4-1.8c-0.5-0.9-1-1.8-1.5-2.7c-0.3-0.5-1.2-1.6-1.1-2.1c-0.9,0.1-1.8,0.2-2.7,0.4
			c1,1.6,1.9,3.1,2.9,4.7c1,1.6,3.6,0.1,2.6-1.5c-1-1.6-1.9-3.1-2.9-4.7c-0.6-1-2.4-0.9-2.7,0.4c-0.6,2.5,1.8,5.1,2.9,7.1
			c0.8-0.6,1.6-1.2,2.4-1.8c-2.1-1.7-3.9-3.7-5.4-6c-0.7,0.7-1.4,1.4-2.1,2.1c-0.2-0.1-0.5,2.3-0.5,2.5c0.1,0.9,0.5,1.8,1,2.6
			c0.9-0.5,1.7-1,2.6-1.5c-0.9-1.4-1.8-2.7-2.7-4.1c-0.6-0.9-1.1-1.6-2.1-2c-1-0.3-1.8,0.5-1.9,1.4c-0.3,2.7,0,5.2,2.4,6.9
			C214.2,143.4,215.7,140.8,214.1,139.6L214.1,139.6z"/>
	</g>
</g>
</svg>
