<?xml version="1.0" encoding="utf-8"?>
<!-- Generator: Adobe Illustrator 21.0.2, SVG Export Plug-In . SVG Version: 6.00 Build 0)  -->
<svg version="1.1" id="Layer_1" xmlns="http://www.w3.org/2000/svg" xmlns:xlink="http://www.w3.org/1999/xlink" x="0px" y="0px"
	 viewBox="0 0 512 512" enable-background="new 0 0 512 512" xml:space="preserve">
<g>
	<g>
		<path fill="#FCFCFC" d="M258,9c80,0,160,0.1,240-0.2c7.5,0,9.2,1.7,9.2,9.2c-0.3,159-0.3,318,0,477c0,7.5-1.7,9.2-9.2,9.2
			c-160-0.3-320-0.3-480,0c-7.5,0-9.2-1.7-9.2-9.2c0.3-159,0.3-318,0-477c0-7.5,1.7-9.2,9.2-9.2C98,9.1,178,9,258,9z M275,408.5
			c0,12-0.1,24,0,36c0.2,18.2,6.9,26.7,20.6,26.7c20.5,0,27.9-6.9,28-27.1c0.2-29.5-0.2-59,0.2-88.5c0.1-10.8-3.5-19.1-11.2-26.6
			c-17.5-17.1-34.5-34.7-52-51.9c-4.3-4.2-6.5-8-4.8-14.3c6.1-22.1,11.8-44.4,17.4-66.6c1.7-6.6,3.6-8.9,11.1-5.7
			c34.4,14.8,68.9,29.2,103.6,43.2c7.2,2.9,8.2,6.1,6.4,13.4c-4.7,18.9-8.2,38.1-12.2,57.1c-10.6,50.3-21.2,100.6-31.8,150.9
			c-1.5,7-3.9,14.6,6.1,16.6c9.2,1.8,13.7-3.8,14.7-12.6c0.2-1.5,0.4-3,0.7-4.4c14.2-67.4,28.4-134.8,42.6-202.3
			c0.8-3.8,1.2-7.7,4.3-10.9c17.5-17.8,16.3-25.7-5.7-37.7c-48.2-26.4-96.9-51.8-144.3-79.5c-27.4-16-46.6-3.9-54.3,21.7
			c-10.9,36.3-19.6,73.3-28.5,110.1c-4.9,20.1-0.6,37.2,18.1,49.6c12.4,8.3,22.8,19.7,35.4,27.6C267.6,351.1,284.9,373.1,275,408.5z
			 M409.7,477.2c1.7-7,3.4-12.7,4.4-18.5c1.3-7.8,4-17.4-7.1-19.6c-11.4-2.3-12.4,7.4-13.6,15.4c-2.2,14.9-9.5,23.7-25.8,22.7
			c-6-0.4-12,0.3-18,0.3c-105.4,0-210.7,0-316.1,0c-4.5,0-9.1-0.2-13.4,0.7c-5.4,1.2-8.6,5.2-8,11c0.5,4.9,3.5,8.3,8.6,8.9
			c3.4,0.5,7,0.3,10.5,0.3c140.8,0,281.6,0,422.4,0c29.3,0,43.3-11.5,49-39.7c1.7-8.1,3.4-17.4-7.2-19.6c-11.2-2.3-12,7.1-13.4,15.3
			c-2,11.3-6,22.1-19.8,22.6C445.1,477.7,427.8,477.2,409.7,477.2z M125,193.1c1.2,0,2.5,0,3.7,0c0,20.4-0.5,40.9,0.2,61.3
			c0.4,13.7,10.4,20.3,23.7,16.8c9.2-2.4,13.7-8.8,16.2-17.8c9-32.6,18.4-65.2,27.7-97.7c13.5-46.8,14.4-40.5-25.4-70.3
			c-0.8-0.6-1.6-1.1-2.4-1.7c-9.1-6.5-16.3-4.5-22.9,4.3c-15.1,20.1-25.5,41.2-21,67.7C126.7,167.9,125,180.7,125,193.1z
			 M141.5,471.1c7.8-1.5,16.1-4.5,20.5-14.3c7.1-15.9,14.6-31.7,22-47.4c8.6-18.5,17.7-36.8,25.8-55.6c5.6-13,0.4-26.2-11.1-32
			c-11.3-5.7-25.9-2.8-31.2,8.9c-16.9,37.2-33,74.7-48.2,112.5C114,456.6,126.1,471.4,141.5,471.1z M278.1,14.6
			c-24.7-0.7-45,18.7-45.7,43.6c-0.6,24.5,19.5,45.5,43.9,45.7c23.6,0.2,43.6-19.7,44-43.9C320.8,35.7,301.8,15.3,278.1,14.6z"/>
		<path fill="#050505" d="M275,408.5c9.9-35.4-7.4-57.4-35.5-75.1c-12.6-8-23-19.4-35.4-27.6c-18.7-12.4-23-29.5-18.1-49.6
			c9-36.9,17.6-73.8,28.5-110.1c7.7-25.6,26.9-37.7,54.3-21.7c47.4,27.7,96.1,53.1,144.3,79.5c22,12.1,23.3,20,5.7,37.7
			c-3.1,3.2-3.5,7-4.3,10.9c-14.2,67.4-28.4,134.8-42.6,202.3c-0.3,1.5-0.5,3-0.7,4.4c-1.1,8.7-5.5,14.4-14.7,12.6
			c-10-1.9-7.6-9.6-6.1-16.6c10.7-50.3,21.2-100.6,31.8-150.9c4-19.1,7.5-38.2,12.2-57.1c1.8-7.3,0.8-10.5-6.4-13.4
			c-34.7-14-69.3-28.4-103.6-43.2c-7.5-3.2-9.4-0.8-11.1,5.7c-5.6,22.3-11.3,44.5-17.4,66.6c-1.7,6.3,0.5,10.1,4.8,14.3
			c17.5,17.1,34.5,34.8,52,51.9c7.7,7.5,11.3,15.8,11.2,26.6c-0.3,29.5,0,59-0.2,88.5c-0.1,20.2-7.5,27.1-28,27.1
			c-13.7,0-20.3-8.5-20.6-26.7C274.9,432.5,275,420.5,275,408.5z"/>
		<path fill="#0B0B0B" d="M409.7,477.2c18.1,0,35.4,0.5,52.7-0.2c13.7-0.6,17.8-11.3,19.8-22.6c1.4-8.2,2.3-17.7,13.4-15.3
			c10.6,2.2,8.8,11.6,7.2,19.6c-5.8,28.2-19.7,39.7-49,39.7c-140.8,0.1-281.6,0-422.4,0c-3.5,0-7,0.2-10.5-0.3c-5-0.7-8.1-4-8.6-8.9
			c-0.6-5.8,2.6-9.8,8-11c4.3-1,8.9-0.7,13.4-0.7c105.4,0,210.7,0,316.1,0c6,0,12-0.7,18-0.3c16.3,1,23.5-7.8,25.8-22.7
			c1.2-7.9,2.2-17.7,13.6-15.4c11.1,2.2,8.5,11.8,7.1,19.6C413.1,464.5,411.4,470.2,409.7,477.2z"/>
		<path fill="#050505" d="M125,193.1c0-12.5,1.7-25.2-0.3-37.3c-4.5-26.6,5.9-47.6,21-67.7c6.6-8.8,13.8-10.7,22.9-4.3
			c0.8,0.6,1.6,1.1,2.4,1.7c39.7,29.7,38.9,23.4,25.4,70.3c-9.4,32.5-18.7,65.1-27.7,97.7c-2.5,8.9-6.9,15.4-16.2,17.8
			c-13.3,3.4-23.2-3.1-23.7-16.8c-0.6-20.4-0.2-40.9-0.2-61.3C127.5,193.1,126.3,193.1,125,193.1z"/>
		<path fill="#050505" d="M141.5,471.1c-15.4,0.3-27.5-14.5-22.2-27.8c15.2-37.9,31.3-75.4,48.2-112.5c5.3-11.7,19.9-14.6,31.2-8.9
			c11.5,5.8,16.7,18.9,11.1,32c-8,18.8-17.2,37.1-25.8,55.6c-7.4,15.8-14.9,31.5-22,47.4C157.6,466.6,149.3,469.6,141.5,471.1z"/>
		<path fill="#050505" d="M278.1,14.6c23.7,0.7,42.7,21.1,42.2,45.4c-0.5,24.2-20.5,44.1-44,43.9c-24.3-0.2-44.5-21.2-43.9-45.7
			C233.1,33.3,253.4,13.9,278.1,14.6z"/>
	</g>
</g>
</svg>
