<?xml version="1.0" encoding="utf-8"?>
<!-- Generator: Adobe Illustrator 21.0.2, SVG Export Plug-In . SVG Version: 6.00 Build 0)  -->
<svg version="1.1" id="Layer_1" xmlns="http://www.w3.org/2000/svg" xmlns:xlink="http://www.w3.org/1999/xlink" x="0px" y="0px"
	 viewBox="0 0 512 512" enable-background="new 0 0 512 512" xml:space="preserve">
<g>
	<g>
		<path fill="#FAFAFA" d="M8.5,5.7c164.4,0,328.9,0.1,493.3-0.3c9.7,0,11.6,1.9,11.6,11.6c-0.4,159.7-0.4,319.4,0,479.2
			c0,9.7-1.9,11.6-11.6,11.6c-160.7-0.4-321.3-0.4-482,0c-9.7,0-11.6-1.9-11.6-11.6C8.6,332.7,8.5,169.2,8.5,5.7z M262.7,45.2
			c-0.7,0.6-1.3,1.2-2,1.7c0.7-0.5,1.4-1.1,2-1.6c3.4,6.4,0.9,13,0.2,19.2c-5,45-12.8,89.9-14.8,135.1c-1.3,29-19.5,46.7-32.1,70.2
			c-9.3-12.6-17.2-23.8-25.5-34.5c-8.7-11.3-17.7-12.7-29.2-4.6c-11.2,7.8-22,16.4-33.2,24.1c-10.6,7.2-11.1,14.8-3.6,24.9
			c14.6,19.7,28,40.3,42.8,59.9c6,7.9,6.5,13.9,1.8,22.7c-12.2,23-11.1,25.6,10.5,39.5c9.5,6.1,14.1,3.9,16.5-7.4
			c1.1-5.4,0.4-10.3-2.2-15c-1.1-2-2.4-4.1,0.1-6.1c7.4-6,24.5,0.1,26.3,9.5c7,37.6,13.9,75.2,20.9,112.7c0.8,4.2-0.2,10.8,7.5,8.7
			c6.6-1.7,3.1-6.9,2.5-10.6c-3.1-19.1-6.6-38.1-9.9-57.1c13.2-5.1,19.8-17.9,30.2-26.2c7.9-6.3,12.3-16.7,23.3-19.1
			c6.7,17.5,13.4,35.1,20.1,52.6c1.9,4.9,3.5,11.7,9.1,11.5c11.9-0.4,9.9,6.7,9.1,13.7c-0.7,6.1-0.6,12.5-2.5,18.2
			c-4.4,13.3,1.7,15.4,13,14.5c24.8-2,49.4-6.7,74.7-3.7c22.6,2.6,19.4,6,19.5-17.4c0.2-147.2,0-294.3,0.1-441.5
			c0-28.8,0.3-28.8-28.2-28.8c-48.5,0-97,0-146.3,0C268.4,23.1,268.9,34.3,262.7,45.2z M156.3,203.1c-0.2-19.8-16.5-35.9-36.2-35.6
			c-19.8,0.3-35.6,16.5-35.4,36.4c0.2,19.9,16.3,35.8,36.1,35.5C141,239,156.5,223.2,156.3,203.1z"/>
		<path fill="#040404" d="M241.3,436.6c3.3,19,6.8,38,9.9,57.1c0.6,3.7,4,8.8-2.5,10.6c-7.7,2-6.7-4.5-7.5-8.7
			c-7-37.6-13.9-75.2-20.9-112.7c-1.8-9.4-18.9-15.5-26.3-9.5c-2.5,2-1.2,4.1-0.1,6.1c2.6,4.7,3.4,9.6,2.2,15
			c-2.3,11.3-7,13.5-16.5,7.4C158,388,156.8,385.4,169,362.4c4.7-8.8,4.2-14.8-1.8-22.7c-14.8-19.6-28.2-40.2-42.8-59.9
			c-7.4-10.1-6.9-17.7,3.6-24.9c11.3-7.7,22-16.3,33.2-24.1c11.6-8.1,20.6-6.7,29.2,4.6c8.3,10.8,16.2,21.9,25.5,34.5
			c12.7-23.6,30.9-41.2,32.1-70.2c2-45.2,9.8-90,14.8-135.1c0.7-6.3,3.2-12.9-0.2-19.2c0,0-0.1-0.1-0.1-0.1c6.2-10.9,5.7-22,0.7-35
			c49.3,0,97.8,0,146.3,0c28.5,0,28.3,0,28.2,28.8c-0.1,147.2,0.1,294.3-0.1,441.5c0,23.4,3.1,20-19.5,17.4
			c-25.3-2.9-49.9,1.8-74.7,3.7c-11.4,0.9-17.4-1.2-13-14.5c1.9-5.7,1.8-12.1,2.5-18.2c0.8-7,2.8-14.1-9.1-13.7
			c-5.6,0.2-7.3-6.6-9.1-11.5c-6.7-17.5-13.4-35.1-20.1-52.6c-8.6-27.4-2.5-22.2-30.9-21.4c-8.9,0.3-17.8,1.4-26.7,1.1
			c-7.3-0.2-8.7,2.6-7.3,9.1C233.9,398.9,237.5,417.8,241.3,436.6z M289.1,172.9c-5.7,9-13.1,17.7-1.2,27.7
			c10.5,8.8,7.9,13.5-4.6,18c-22.1,8-21.9,8.7-17.6,30.9c-7.8,14-15.6,28-25.2,45.2c12.9-7,23.3-12.1,33.1-18.1
			c11.9-7.3,23.6-8,36.2-2c11.4,5.5,23.3,10.1,35,15.1c3.3,1.4,7.4,4.5,7.7-2.6c1.6-39,9.2-78,1.1-117.1
			c-0.5-15.5-7.9-27.3-19.7-36.7c-4.9-8.3-9.8-16.7-15.4-26.3C308.5,129.9,298.8,151.4,289.1,172.9z M277.4,29.2
			c-4.9,44.8-9.2,86.4-14.4,127.9c-1.3,10.2,1.6,16.8,10,23.2c13.1-27.6,25.7-54.3,38.4-81c1.5-3.2,1.6-6.2,0-9.4
			C301.9,70.1,292.9,49.9,277.4,29.2z M271.7,328.9c6.6,0,11.2,0,15.8,0c27.3,0.1,27.3,0.1,33.9,26.6c4.3,17.6,8.8,35.1,14,56
			c2.6-11.4,4.4-19.1,6.1-26.8c1.8-7.8,3.6-15.6,5.2-23.4c6.4-30.9,6-29.9-23.1-41.3C304.6,312.6,288.2,310.8,271.7,328.9z
			 M260,183.1c-1.4,10.1-2.5,17.8-3.5,25.4C260.4,201.1,272.8,194.9,260,183.1z"/>
		<path fill="#040404" d="M156.3,203.1c0.2,20-15.3,35.9-35.4,36.2c-19.9,0.3-36-15.5-36.1-35.5c-0.2-19.9,15.6-36.1,35.4-36.4
			C139.8,167.2,156.1,183.3,156.3,203.1z"/>
		<path fill="#F5F5F5" d="M241.3,436.6c-3.8-18.8-7.4-37.7-11.5-56.5c-1.4-6.5,0-9.3,7.3-9.1c8.9,0.2,17.8-0.9,26.7-1.1
			c28.4-0.9,22.3-6,30.9,21.4c-11,2.5-15.4,12.9-23.3,19.1C261.1,418.7,254.6,431.5,241.3,436.6z"/>
		<path fill="#F5F5F5" d="M262.7,45.2c0,0,0.1,0.1,0.1,0.1c-0.7,0.5-1.4,1.1-2,1.6C261.4,46.4,262.1,45.8,262.7,45.2z"/>
		<path fill="#F5F5F5" d="M353.8,170.1c8,39.1,0.5,78.1-1.1,117.1c-0.3,7.1-4.3,4-7.7,2.6c-11.7-5-23.6-9.6-35-15.1
			c-12.7-6.1-24.3-5.3-36.2,2c-9.9,6-20.3,11.1-33.1,18.1c9.6-17.2,17.4-31.2,25.2-45.2c6.6,0.2,9.8-5,13.7-8.9
			c20.7-20.6,41.3-41.3,62-61.8C345.1,175.3,347.9,170.5,353.8,170.1z"/>
		<path fill="#F5F5F5" d="M277.4,29.2c15.6,20.8,24.5,40.9,34.1,60.7c1.6,3.2,1.5,6.2,0,9.4c-12.7,26.7-25.3,53.4-38.4,81
			c-8.5-6.3-11.3-13-10-23.2C268.2,115.6,272.5,73.9,277.4,29.2z"/>
		<path fill="#FAFAFA" d="M353.8,170.1c-5.9,0.3-8.7,5.2-12.3,8.7c-20.7,20.6-41.3,41.3-62,61.8c-3.9,3.9-7.1,9.1-13.7,8.9
			c-4.3-22.1-4.5-22.9,17.6-30.9c12.4-4.5,15-9.2,4.6-18c-11.9-10-4.6-18.7,1.2-27.7c6,0,8.9-4.8,12.5-8.3
			c10.9-10.4,21.7-20.8,32.5-31.3C346,142.8,353.3,154.6,353.8,170.1z"/>
		<path fill="#F5F5F5" d="M271.7,328.9c16.5-18.1,32.9-16.3,51.8-8.8c29.1,11.4,29.5,10.4,23.1,41.3c-1.6,7.8-3.4,15.6-5.2,23.4
			c-1.7,7.7-3.5,15.4-6.1,26.8c-5.2-20.9-9.6-38.4-14-56c-6.6-26.6-6.5-26.6-33.9-26.6C282.8,328.9,278.2,328.9,271.7,328.9z"/>
		<path fill="#F5F5F5" d="M334.2,133.4c-10.8,10.4-21.6,20.9-32.5,31.3c-3.7,3.5-6.5,8.3-12.5,8.3c9.7-21.5,19.4-43.1,29.6-65.9
			C324.4,116.7,329.3,125.1,334.2,133.4z"/>
		<path fill="#F5F5F5" d="M260,183.1c12.8,11.8,0.4,17.9-3.5,25.4C257.5,200.9,258.6,193.3,260,183.1z"/>
	</g>
</g>
</svg>
