<svg xmlns="http://www.w3.org/2000/svg" xmlns:xlink="http://www.w3.org/1999/xlink" id="Layer_1" x="0" y="0" enable-background="new 0 0 512 512" version="1.1" viewBox="0 0 512 512" xml:space="preserve"><g><g><path fill="#FFF" d="M6.4,503.8c0-165.6,0-331.1,0-496.7c165.8,0,331.6,0,497.4,0c0,165.6,0,331.1,0,496.7 C338,503.8,172.2,503.8,6.4,503.8z M400.1,366.4c4.2,0,7.8,0,11.5,0c12.2-0.2,21.3-9.2,21.3-21.3c0.1-26.8,0.1-53.6,0-80.4 c0-12.3-9.2-21.4-21.5-21.5c-8.5-0.1-17,0-25.5,0c-1.2,0-2.5,0-4,0c0-1.9,0-3.3,0-4.7c0-36.3,0-72.5,0-108.8 c0-18.2-12.8-31.1-30.9-31.1c-81.2,0-162.5,0-243.7,0c-18.9,0-31.5,12.7-31.5,31.6c0,55.6,0,111.2,0,166.8 c0,18.3,12.6,31,30.9,31.1c13.1,0,26.2,0,39.3,0c1.3,0,2.5,0,4.1,0c-0.8,7.9-1.6,15.4-2.3,22.9c-2,18.9-4,37.8-5.7,56.7 c-0.1,1.5,1.2,3.8,2.5,4.4c1.3,0.6,3.4-0.2,5-0.7c0.8-0.3,1.4-1.3,2-1.9c26.2-26.1,52.4-52.1,78.5-78.3c2.3-2.3,4.5-3.2,7.7-3.1 c8.5,0.2,17,0.1,25.5,0.1c1.2,0,2.5,0,3.9,0c0,5.2,0.3,9.8-0.1,14.4c-1.1,14.2,9.8,24.5,23.8,24.1c19.9-0.6,39.9-0.1,59.9-0.2 c2.3,0,3.9,0.6,5.6,2.2c14.3,14.1,28.6,28.2,42.9,42.3c1.8,1.8,3.6,2.6,6,1.3c2.2-1.2,2.5-3.2,2.1-5.5c-0.8-4.3-1.6-8.6-2.3-12.9 C403.3,384.9,401.8,375.9,400.1,366.4z"/><path d="M400.1,366.4c1.7,9.5,3.2,18.4,4.8,27.4c0.8,4.3,1.5,8.6,2.3,12.9c0.5,2.3,0.1,4.2-2.1,5.5c-2.3,1.3-4.2,0.5-6-1.3 c-14.3-14.1-28.6-28.1-42.9-42.3c-1.7-1.6-3.3-2.2-5.6-2.2c-20,0.1-39.9-0.4-59.9,0.2c-13.9,0.4-24.9-9.8-23.8-24.1 c0.4-4.6,0.1-9.2,0.1-14.4c-1.4,0-2.6,0-3.9,0c-8.5,0-17,0.1-25.5-0.1c-3.2-0.1-5.4,0.8-7.7,3.1c-26.1,26.2-52.3,52.2-78.5,78.3 c-0.7,0.7-1.2,1.7-2,1.9c-1.6,0.5-3.8,1.4-5,0.7c-1.3-0.6-2.6-3-2.5-4.4c1.8-18.9,3.8-37.8,5.7-56.7c0.8-7.5,1.5-15,2.3-22.9 c-1.5,0-2.8,0-4.1,0c-13.1,0-26.2,0-39.3,0c-18.2,0-30.8-12.8-30.9-31.1c0-55.6,0-111.2,0-166.8c0-18.9,12.6-31.6,31.5-31.6 c81.2,0,162.5,0,243.7,0c18.1,0,30.9,12.9,30.9,31.1c0,36.3,0,72.5,0,108.8c0,1.4,0,2.8,0,4.7c1.5,0,2.7,0,4,0 c8.5,0,17-0.1,25.5,0c12.4,0.1,21.5,9.2,21.5,21.5c0,26.8,0.1,53.6,0,80.4c0,12.2-9.1,21.2-21.3,21.3 C408,366.4,404.3,366.4,400.1,366.4z M151.6,397.3c1.5-1.4,2.5-2.3,3.4-3.1c23.8-23.8,47.7-47.5,71.4-71.4 c2.3-2.3,4.6-3.2,7.8-3.2c38.6,0.1,77.2,0.1,115.8,0.1c15,0,23.4-8.5,23.4-23.5c0-55.1,0-110.3,0-165.4c0-15-8.5-23.6-23.4-23.6 c-80.7,0-161.3,0-242,0c-15.2,0-23.7,8.5-23.7,23.7c0,55.3,0,110.5,0,165.8c0,14.5,8.5,23.1,23.1,23.1c15.4,0,30.7,0,46.1,0 c4.1,0,5.9,1.8,5.5,5.5c-0.9,9-1.8,18.1-2.8,27.1C154.7,367,153.2,381.7,151.6,397.3z M275.6,328.2c0,5.5,0,10.6,0,15.6 c0,9.4,4.8,14.1,14.2,14.1c21,0,42,0.1,63,0c3.1,0,5.3,0.8,7.5,3c10.8,10.8,21.7,21.4,32.5,32.1c0.9,0.9,1.8,1.7,3.5,3.1 c-0.3-2.2-0.4-3.4-0.6-4.6c-1.6-9.1-3.2-18.1-4.8-27.2c-0.7-4.3,0.9-6.3,5.2-6.3c5.2-0.1,10.4,0,15.6,0 c7.5-0.1,12.6-5.3,12.7-12.8c0-26.9,0-53.8,0-80.8c0-6.6-4.3-12.1-10.7-12.4c-10.4-0.5-20.9-0.1-31.7-0.1c0,1.5,0,2.8,0,4 c0,13.3-0.4,26.7,0.1,40c0.8,18.5-13.6,33-32.6,32.5c-22.9-0.7-45.8-0.2-68.7-0.2C279.2,328.2,277.7,328.2,275.6,328.2z"/><path fill="#FFF" d="M151.6,397.3c1.6-15.6,3.1-30.3,4.6-45c0.9-9,1.9-18.1,2.8-27.1c0.4-3.8-1.4-5.5-5.5-5.5 c-15.4,0-30.7,0-46.1,0c-14.6,0-23.1-8.6-23.1-23.1c0-55.3,0-110.5,0-165.8c0-15.2,8.5-23.7,23.7-23.7c80.7,0,161.3,0,242,0 c14.9,0,23.4,8.6,23.4,23.6c0,55.1,0,110.3,0,165.4c0,15.1-8.4,23.5-23.4,23.5c-38.6,0-77.2,0-115.8-0.1c-3.2,0-5.5,0.9-7.8,3.2 c-23.8,23.8-47.6,47.6-71.4,71.4C154.1,395,153.1,395.8,151.6,397.3z M228.6,162.3c30.2,0,60.5,0,90.7,0c1.2,0,2.7,0.4,3.5-0.1 c1.5-1,3.4-2.5,3.6-3.9c0.2-1.3-1.6-3-3-4.1c-0.7-0.6-2.3-0.3-3.4-0.3c-60.7,0-121.4,0-182.1,0c-1.3,0-3-0.3-3.8,0.4 c-1.3,1.1-2.9,2.9-2.8,4.2c0.1,1.4,2,2.8,3.5,3.7c0.8,0.5,2.3,0.2,3.5,0.2C168.4,162.3,198.5,162.3,228.6,162.3z M228.9,217.6 c16.9,0,33.8,0,50.7,0c14.1,0,28.1,0,42.2,0c2.9,0,4.9-1.3,4.9-4.3c0-2.8-2-4.1-4.7-4.2c-0.7,0-1.4,0-2.1,0 c-60.6,0-121.2,0-181.7,0c-1.2,0-2.7-0.4-3.5,0.2c-1.4,1.1-3.2,2.9-3.2,4.3c0.1,1.4,2.2,2.8,3.7,3.8c0.7,0.5,2.1,0.1,3.1,0.1 C168.4,217.6,198.6,217.6,228.9,217.6z M228.7,272.9c30.2,0,60.5,0,90.7,0c1.2,0,2.6,0.4,3.5-0.1c1.4-0.9,3.5-2.4,3.5-3.6 c0-1.5-1.7-3.3-3-4.5c-0.7-0.6-2.3-0.3-3.4-0.3c-60.7,0-121.4,0-182.1,0c-1.2,0-2.7-0.3-3.4,0.3c-1.3,1.2-3,2.9-3,4.4 c0,1.2,2,2.7,3.5,3.6c0.9,0.5,2.3,0.1,3.5,0.1C168.5,272.9,198.6,272.9,228.7,272.9z"/><path fill="#FFF" d="M275.6,328.2c2.1,0,3.6,0,5.1,0c22.9,0,45.8-0.5,68.7,0.2c19,0.6,33.3-14,32.6-32.5 c-0.6-13.3-0.1-26.7-0.1-40c0-1.3,0-2.5,0-4c10.8,0,21.3-0.4,31.7,0.1c6.5,0.3,10.7,5.8,10.7,12.4c0.1,26.9,0.1,53.8,0,80.8 c0,7.5-5.2,12.7-12.7,12.8c-5.2,0.1-10.4,0-15.6,0c-4.3,0-5.9,2-5.2,6.3c1.6,9.1,3.2,18.1,4.8,27.2c0.2,1.2,0.3,2.5,0.6,4.6 c-1.6-1.5-2.6-2.3-3.5-3.1c-10.9-10.7-21.8-21.3-32.5-32.1c-2.2-2.2-4.5-3-7.5-3c-21,0.1-42,0.1-63,0c-9.4,0-14.2-4.8-14.2-14.1 C275.6,338.7,275.6,333.6,275.6,328.2z"/><path d="M228.6,162.3c-30.1,0-60.2,0-90.3,0c-1.2,0-2.6,0.4-3.5-0.2c-1.4-0.9-3.3-2.3-3.5-3.7c-0.1-1.4,1.5-3.2,2.8-4.2 c0.8-0.7,2.5-0.4,3.8-0.4c60.7,0,121.4,0,182.1,0c1.2,0,2.7-0.3,3.4,0.3c1.3,1.1,3.1,2.9,3,4.1c-0.2,1.5-2.1,2.9-3.6,3.9 c-0.8,0.6-2.3,0.1-3.5,0.1C289.1,162.3,258.9,162.3,228.6,162.3z"/><path d="M228.9,217.6c-30.2,0-60.5,0-90.7,0c-1.1,0-2.4,0.4-3.1-0.1c-1.5-1-3.6-2.5-3.7-3.8c-0.1-1.4,1.8-3.2,3.2-4.3 c0.7-0.6,2.3-0.2,3.5-0.2c60.6,0,121.2,0,181.7,0c0.7,0,1.4,0,2.1,0c2.7,0.1,4.7,1.3,4.7,4.2c0,3-1.9,4.3-4.9,4.3 c-14.1,0-28.1,0-42.2,0C262.6,217.6,245.8,217.6,228.9,217.6z"/><path d="M228.7,272.9c-30.1,0-60.2,0-90.3,0c-1.2,0-2.6,0.4-3.5-0.1c-1.4-0.9-3.5-2.4-3.5-3.6c0-1.5,1.7-3.3,3-4.4 c0.7-0.6,2.3-0.3,3.4-0.3c60.7,0,121.4,0,182.1,0c1.2,0,2.7-0.3,3.4,0.3c1.3,1.2,3,2.9,3,4.5c0,1.2-2.1,2.7-3.5,3.6 c-0.9,0.5-2.3,0.1-3.5,0.1C289.1,272.9,258.9,272.9,228.7,272.9z"/></g></g></svg>