<?xml version="1.0" encoding="utf-8"?>
<!-- Generator: Adobe Illustrator 21.0.2, SVG Export Plug-In . SVG Version: 6.00 Build 0)  -->
<svg version="1.1" id="Layer_1" xmlns="http://www.w3.org/2000/svg" xmlns:xlink="http://www.w3.org/1999/xlink" x="0px" y="0px"
	 viewBox="0 0 512 512" enable-background="new 0 0 512 512" xml:space="preserve">
<g>
	<g>
		<path d="M17.9,74.3c160.4,0,320.9,0,482.9,0c0,120.3,0,240.5,0,360.8c-14.8,3.5-29.6,10-44.4,10.1c-136.9,0.8-273.7,0.5-410.6,0.4
			c-32.8,0-38.5-5.7-38.5-38.3c-0.1-96.2-0.5-192.5,0.5-288.7C7.9,103.8,14.4,89.1,17.9,74.3z M255.1,398.4
			c58.4,0,116.7-0.4,175.1,0.3c16.4,0.2,24-3.8,23.8-22.1c-0.9-63.5-0.6-127.1-0.1-190.7c0.1-15-3.3-22.6-20.5-22.5
			c-119.4,0.5-238.7,0.5-358.1,0c-16.6-0.1-21.2,6.3-21.1,22c0.6,63.5,0.7,127.1-0.1,190.7c-0.2,17.6,6.2,22.9,23.2,22.7
			C136.6,397.9,195.9,398.4,255.1,398.4z"/>
		<path fill="#FFFFFF" d="M17.9,74.3c-3.5,14.8-10,29.5-10.1,44.4c-0.9,96.2-0.5,192.5-0.5,288.7c0,32.7,5.7,38.3,38.5,38.3
			c136.9,0.1,273.7,0.3,410.6-0.4c14.8-0.1,29.6-6.6,44.4-10.1c0,7.1,0,14.1,0,21.2c-165.8,0-331.5,0-498,0c0-127.3,0-254.7,0-382
			C7.3,74.3,12.6,74.3,17.9,74.3z"/>
		<path fill="#FFFFFF" d="M255.1,398.4c-59.2,0-118.5-0.5-177.7,0.3c-17,0.2-23.4-5-23.2-22.7c0.8-63.5,0.7-127.1,0.1-190.7
			c-0.1-15.7,4.5-22,21.1-22c119.4,0.5,238.7,0.5,358.1,0c17.1-0.1,20.6,7.5,20.5,22.5c-0.5,63.5-0.7,127.1,0.1,190.7
			c0.2,18.3-7.4,22.2-23.8,22.1C371.8,398,313.5,398.4,255.1,398.4z M448.4,264.8c-21.4,0-41.6-0.7-61.7,0.2
			c-14.4,0.7-23.1-3.1-30.8-17c-12.9-23.5-29.6-44.9-47.3-71c-37.4,49.6-71.9,95.5-107.8,143.1c-10.5-15-19.6-28.7-29.6-41.9
			c-3.9-5.1-9.5-12.4-14.6-12.6c-32.3-1.1-64.6-0.6-96.9-0.6c0,12.4,0,20.9,0,32.2c19.6,0,38.1,1.1,56.3-0.3
			c18-1.4,29.2,4.6,38.4,20.6c13.1,22.5,29.1,43.3,45.1,66.7c37.4-49.8,72.6-96.7,108.9-145c10.5,16.8,18.8,31.1,28.3,44.7
			c3.6,5.3,9.6,12.4,14.7,12.6c32.3,1.1,64.6,0.6,96.9,0.6C448.4,284.6,448.4,276.1,448.4,264.8z"/>
		<path d="M448.4,264.8c0,11.3,0,19.9,0,32.3c-32.3,0-64.6,0.6-96.9-0.6c-5.1-0.2-11.1-7.3-14.7-12.6c-9.4-13.6-17.8-27.9-28.3-44.7
			c-36.3,48.3-71.5,95.2-108.9,145c-16-23.3-32.1-44.1-45.1-66.7c-9.3-16-20.4-22-38.4-20.6c-18.3,1.5-36.7,0.3-56.3,0.3
			c0-11.3,0-19.9,0-32.2c32.3,0,64.7-0.6,96.9,0.6c5.1,0.2,10.7,7.5,14.6,12.6c10,13.1,19.1,26.9,29.6,41.9
			c35.9-47.6,70.4-93.5,107.8-143.1c17.7,26.1,34.4,47.5,47.3,71c7.6,14,16.3,17.7,30.8,17C406.8,264.1,427,264.8,448.4,264.8z"/>
	</g>
</g>
</svg>
