<?xml version="1.0" encoding="utf-8"?>
<!-- Generator: Adobe Illustrator 21.0.2, SVG Export Plug-In . SVG Version: 6.00 Build 0)  -->
<svg version="1.1" id="Layer_1" xmlns="http://www.w3.org/2000/svg" xmlns:xlink="http://www.w3.org/1999/xlink" x="0px" y="0px"
	 viewBox="0 0 512 512" enable-background="new 0 0 512 512" xml:space="preserve">
<g>
	<g>
		<path fill="#010101" d="M8.9,186.7c0-4,0-7.9,0-11.9c5.5-2.2,11.2-3.1,17.2-3c23.7,0.2,47.4-0.1,71.1,0.2c9.7,0.1,21.7-4.1,28.6,2
			c5.8,5.1,1.2,16.8,2,25.5c0,0.5,0,1,0.1,1.5c2.2,20.6,18.8,36.6,39.2,37.7c19.6,1,37.6-12.8,41.6-32.9c1.4-7.2,1.8-14.8,1.1-22.1
			c-1.1-10.3,3.3-12.4,12.5-12c14.3,0.7,28.6-0.2,42.9,0.3c10.7,0.3,23.9-4.5,31.2,2.4c4.9,4.6,1.5,17.7,2.4,26.9
			c1.9,21.2,19.9,37.6,40.7,37.5c21.5-0.1,39.3-17.2,40.6-39.2c0.3-5.4,0.6-10.9,0-16.3c-1.1-9.2,2.3-11.8,11.5-11.6
			c29.6,0.6,59.2,0.2,88.8,0.2c17.4,0,18.6,1.7,14.3,19.2c-22.7,92.4-45.3,184.8-68,277.2c-5.7,23.4-20.6,35.2-44.4,35.3
			c-85.9,0.1-171.8,0.1-257.6,0c-23.8,0-38.6-11.9-44.3-35.3c-19.9-81.4-39.7-162.9-59.9-244.2C17.2,211.5,16.5,198,8.9,186.7z"/>
		<path fill="#FBFBFB" d="M8.9,186.7c7.7,11.3,8.3,24.8,11.4,37.4c20.2,81.3,40,162.8,59.9,244.2c5.7,23.4,20.5,35.3,44.3,35.3
			c85.9,0.1,171.8,0.1,257.6,0c23.8,0,38.6-11.9,44.4-35.3c22.7-92.4,45.4-184.8,68-277.2c4.3-17.5,3.1-19.1-14.3-19.2
			c-29.6-0.1-59.2,0.3-88.8-0.2c-9.2-0.2-12.6,2.4-11.5,11.6c0.7,5.3,0.3,10.9,0,16.3c-1.3,22-19.1,39.1-40.6,39.2
			c-20.8,0.1-38.8-16.3-40.7-37.5c-0.8-9.2,2.5-22.3-2.4-26.9c-7.3-6.9-20.5-2.1-31.2-2.4c-14.3-0.4-28.6,0.4-42.9-0.3
			c-9.2-0.4-13.6,1.7-12.5,12c0.8,7.3,0.4,14.9-1.1,22.1c-4,20.1-22,33.9-41.6,32.9c-20.4-1-37.1-17-39.2-37.7c-0.1-0.5,0-1-0.1-1.5
			c-0.8-8.7,3.8-20.4-2-25.5c-6.9-6.1-18.8-1.8-28.6-2c-23.7-0.3-47.4,0-71.1-0.2c-6-0.1-11.7,0.8-17.2,3
			c0-51.4,0.2-102.7-0.2-154.1c-0.1-7.4,1.7-9.1,9.1-9.1C88.9,12,160,11.9,231.2,11.9c-1.3,4.3-5.6,3.6-8.5,4.7
			c-47.4,17-74.2,54.4-74.4,104.4c-0.1,24.2-0.1,48.4,0,72.6c0.1,14.9,7.8,24.2,19.8,24.6c12.6,0.4,21.1-9.3,21.2-24.8
			c0.2-23.7,0-47.4,0.1-71.1c0.1-40.5,27.2-69.3,64.9-69.2c36.9,0.1,64,28.7,64.3,68.4c0.2,24.2-0.1,48.4,0.1,72.6
			c0.1,14.8,8.3,24.1,20.3,24.2c12.1,0.1,20.2-9.2,20.3-24c0.2-26.2,0.4-52.3-0.1-78.5c-0.8-46.9-31.2-86.4-76.2-100
			c-3.5-1.1-8.2,0.5-10.5-3.9c74.1,0,148.2,0.1,222.3-0.2c7.4,0,9.1,1.7,9.1,9.1c-0.2,159-0.2,318.1,0,477.1c0,7.4-1.7,9.1-9.1,9.1
			c-159-0.2-318.1-0.3-477.1,0.2c-10.2,0-9-4.3-9-10.7C8.9,393.2,8.9,289.9,8.9,186.7z"/>
		<path fill="#050505" d="M272.6,11.9c2.3,4.4,7,2.8,10.5,3.9c45,13.6,75.4,53.1,76.2,100c0.4,26.2,0.2,52.3,0.1,78.5
			c-0.1,14.8-8.2,24-20.3,24c-12.1-0.1-20.2-9.3-20.3-24.2c-0.2-24.2,0.1-48.4-0.1-72.6c-0.4-39.7-27.4-68.3-64.3-68.4
			c-37.8-0.1-64.8,28.7-64.9,69.2c-0.1,23.7,0.1,47.4-0.1,71.1c-0.1,15.5-8.7,25.2-21.2,24.8c-12.1-0.4-19.7-9.7-19.8-24.6
			c-0.2-24.2-0.1-48.4,0-72.6c0.2-50,27-87.4,74.4-104.4c3-1.1,7.2-0.4,8.5-4.7C245,11.9,258.8,11.9,272.6,11.9z"/>
	</g>
</g>
</svg>
