<svg xmlns="http://www.w3.org/2000/svg" xmlns:xlink="http://www.w3.org/1999/xlink" id="Layer_1" x="0" y="0" enable-background="new 0 0 512 512" version="1.1" viewBox="0 0 512 512" xml:space="preserve"><g><g><path fill="#FFF" d="M303.5,508.7c-71.3,0-142.7,0-214.1,0c0-165.4,0-330.8,0-496.5c111.6,0,223.4,0,335.6,0 c0,165.3,0,330.9,0,496.5c-36.3,0-72.9,0-109.6,0c14.1-8,19.1-19.8,17.1-36c-1.9-15.7-3.1-31.7-2.4-47.5 c1.5-35.8-7.3-67.2-33.5-92.9c-5.2-5.2-9.4-11.5-13.4-17.8c-1.9-3.1-3.6-7.5-2.9-10.8c5.8-28.9,12.1-57.7,18.3-86.5 c16.2,30.6,47,38.8,74.3,51.5c8.5,4,11.1,8.8,11,18c-0.4,62.9-0.2,125.9-0.2,188.8c0,7.8,0,15.7,0,24.2c6.5,0,11.5,0,17.9,0 c0-5.3,0-9.6,0-14c0-64.4-0.2-128.9,0.3-193.3c0-5.7,3.7-12.4,7.8-16.7c8.7-9.4,8.7-19.4,0-28.6c-3.8-4-7.1-10.2-7.4-15.6 c-0.9-17.2-0.3-34.4-0.3-52.8c-6.9,0.3-12,0.5-18.1,0.8c0,18.3,0,35,0,54.4c-19-10-38.3-13.8-49.8-32.7 c-12.6-20.7-27.8-39.8-41.7-59.7c-9.4-13.5-22.2-18.8-38.5-17.5c-15.6,1.2-23.8,11.1-28.9,24.2c-3.2,8.2-5.8,16.9-7.6,25.5 c-12.3,59.1-23.9,118.4-36.7,177.3c-2.4,11.1-8,22.2-14.7,31.4c-19.2,25.9-39.9,50.6-59.7,76c-10.7,13.8-9.4,27.4,2.9,36.3 c11.7,8.5,24.2,6.2,34.9-7.2c20.4-25.6,40-51.8,60.8-77c11.7-14.1,20.1-29,22.4-47.4c1.3-10.1,4.5-19.9,7.5-32.9 c12,15.7,21.5,29.3,32.3,42c9.4,11,14.3,22.8,14.5,37.5c0.3,22.8,2.9,45.5,3.1,68.3C284.8,492.9,290.2,502.9,303.5,508.7z M176.9,104.7c-7.9,0.5-16,0-23.5,2c-5.1,1.4-11.6,5.4-13.3,9.8c-16.5,43.4-32.3,87.1-47.7,130.9c-4,11.4,0.4,20.4,11.9,25.2 c9.6,4,19.2,7.9,28.8,11.8c19.2,7.7,27.1,4.3,33.7-15.2c13.5-39.8,26.9-79.6,40.3-119.4C220,111.7,216.7,106.8,176.9,104.7z M290.7,16c-27.4,0.2-50,23.4-49.7,50.7c0.4,27.3,23.6,49.8,51,49.3c26.9-0.5,48.9-22.9,48.9-49.8C341,38.9,317.8,15.8,290.7,16z"/><path d="M303.5,508.7c-13.3-5.8-18.7-15.9-18.8-30.5c-0.3-22.8-2.9-45.5-3.1-68.3c-0.2-14.7-5.1-26.5-14.5-37.5 c-10.8-12.6-20.3-26.3-32.3-42c-3.1,13-6.3,22.8-7.5,32.9c-2.3,18.4-10.7,33.3-22.4,47.4c-20.8,25.2-40.4,51.4-60.8,77 c-10.6,13.3-23.1,15.6-34.9,7.2c-12.3-8.9-13.7-22.5-2.9-36.3c19.8-25.4,40.5-50.1,59.7-76c6.8-9.1,12.3-20.3,14.7-31.4 c12.9-59,24.4-118.2,36.7-177.3c1.8-8.7,4.4-17.3,7.6-25.5c5.1-13.1,13.3-22.9,28.9-24.2c16.2-1.3,29,4,38.5,17.5 c13.9,19.9,29.1,39,41.7,59.7c11.5,18.9,30.8,22.7,49.8,32.7c0-19.4,0-36,0-54.4c6.1-0.3,11.1-0.5,18.1-0.8 c0,18.4-0.6,35.6,0.3,52.8c0.3,5.4,3.6,11.6,7.4,15.6c8.8,9.2,8.7,19.2,0,28.6c-4,4.3-7.7,11-7.8,16.7 c-0.5,64.4-0.3,128.9-0.3,193.3c0,4.4,0,8.7,0,14c-6.3,0-11.4,0-17.9,0c0-8.5,0-16.4,0-24.2c0-62.9-0.2-125.9,0.2-188.8 c0.1-9.2-2.5-14-11-18c-27.4-12.7-58.2-20.9-74.3-51.5c-6.2,28.8-12.5,57.6-18.3,86.5c-0.7,3.3,1,7.7,2.9,10.8 c3.9,6.3,8.1,12.6,13.4,17.8c26.1,25.7,34.9,57.1,33.5,92.9c-0.7,15.8,0.5,31.8,2.4,47.5c2,16.2-3.1,27.9-17.1,36 C311.4,508.7,307.4,508.7,303.5,508.7z"/><path d="M176.9,104.7c39.9,2.1,43.2,6.9,30.2,45.2c-13.4,39.8-26.8,79.6-40.3,119.4c-6.6,19.4-14.5,22.9-33.7,15.2 c-9.6-3.9-19.2-7.8-28.8-11.8c-11.5-4.8-15.9-13.8-11.9-25.2c15.4-43.8,31.2-87.5,47.7-130.9c1.7-4.4,8.2-8.4,13.3-9.8 C160.8,104.7,169,105.3,176.9,104.7z"/><path d="M290.7,16c27.2-0.2,50.4,22.9,50.3,50.2c-0.1,27-22,49.3-48.9,49.8c-27.4,0.5-50.6-22-51-49.3 C240.6,39.3,263.3,16.2,290.7,16z"/></g></g></svg>