<?xml version="1.0" encoding="utf-8"?>
<!-- Generator: Adobe Illustrator 21.0.2, SVG Export Plug-In . SVG Version: 6.00 Build 0)  -->
<svg version="1.1" id="Layer_1" xmlns="http://www.w3.org/2000/svg" xmlns:xlink="http://www.w3.org/1999/xlink" x="0px" y="0px"
	 viewBox="0 0 512 512" enable-background="new 0 0 512 512" xml:space="preserve">
<g>
	<g>
		<path fill="#FDFDFD" d="M204.1,9.1c98,0,196,0.2,294-0.3c9.1,0,10.9,1.8,10.9,10.9c-0.3,159.4-0.3,318.8,0,478.2
			c0,9.1-1.8,10.9-10.9,10.9c-159.4-0.3-318.8-0.3-478.2,0c-9.1,0-10.9-1.8-10.9-10.9c0.4-159.4,0.3-318.8,0-478.2
			c0-9.1,1.8-11,10.9-10.9C80.2,9.4,140.6,9.1,201,9.1c-1.5,5.2-6.7,3.5-10,5.1c-15.9,7.8-24.1,23.5-20,40
			c3.9,16,19.4,26.7,36.6,25.4c16.3-1.2,29.2-14.1,30.6-30.4c1.5-18-9-32.6-26.7-37C208.8,11.7,205.1,13.5,204.1,9.1z M425.8,57.6
			c-39.4,40.8-77.7,78.7-113.8,118.6c-15.6,17.3-31.4,25.7-54.9,23.3c-20.6-2.1-20.4-0.4-19.4-21.2c0.3-7.5,2.8-8.4,9.1-6.7
			c9.8,2.7,19.6,4.9,29.5,7.3c11.1,2.7,21.3,1.3,24.5-11.1c3.3-12.4-4.9-18.5-16-21.3c-11.8-3-23.4-6.6-35.3-8.9
			c-8.3-1.6-11.7-4.4-11.8-13.7c-0.3-21.2-14.5-35.4-33.7-35.4c-19.6-0.1-33.8,14.9-34.1,36.7c-0.3,19.3-0.9,38.6,0.2,57.8
			c0.7,12.4-2.5,16.7-15.6,16.2c-28.9-1-57.9-0.6-86.8-0.2c-34.5,0.4-54.7,20.9-55,55.2c-0.2,18.3,0,36.5,0,54.8
			c0,24.8,0,24.1,25.1,24.4c10.1,0.1,11.6-3.6,11.3-12.2c-0.6-16.7,1.2-33.6-0.5-50.2c-1.9-18.4,6.3-31.5,18.8-47.1
			c0,28.1-0.6,53.2,0.2,78.3c0.4,13.2-1.6,24.9-10.3,35.3c-6.8,8.1-8.9,17.3-8.7,28c0.7,35.5,0.2,71.1,0.3,106.6
			c0.1,17.9,8.4,27.9,22.9,27.7c14.3-0.2,22.5-10.2,22.6-28.3c0.1-27.9,1.6-55.9-0.5-83.7c-1.6-21.5,9.9-35.3,21.4-52.2
			c2.9,15.6-1.4,29.4,4.4,42.6c15.1,34.2,29.5,68.8,44.3,103.2c6.8,15.8,18,21.7,30.7,16.7c13.4-5.3,17.4-18,10.6-34.3
			c-10.3-24.8-19.5-50.1-31.5-74c-9.4-18.7-9.7-34.4,3.4-51.2c5.1-6.5,8.9-10.5,17.8-10.3c30.4,0.6,60.9,0.7,91.4,0
			c10.1-0.2,12.6,2.7,12.5,12.6c-0.6,43.6-0.2,87.3-0.3,131c0,6.7-0.1,13.2,4.3,18.8c6.8,8.6,15.9,11.5,25.8,8
			c11.4-4,15.5-13.5,15.5-25.3c-0.1-43.7-0.1-87.3,0-131c0-5-0.7-10,1.8-14.9c15.7-31.7,31.4-63.5,46.7-95.4c2.4-5,4.8-6.1,10.4-5.5
			c30.8,3.1,52.7-9,65.3-36.1c2.8-5.9,4.9-8.6,11.9-8.2c12,0.7,20.4-5.5,23.9-17.1c3.6-11.9-1.7-20.7-11.3-27.3
			c-13.8-9.4-27.4-19.3-41.8-27.7c-17.5-10.1-32.3-20.7-24.2-44.5C427.2,64.2,426.3,62.1,425.8,57.6z"/>
		<path fill="#030303" d="M204.1,9.1c1,4.4,4.7,2.5,7.4,3.2c17.7,4.4,28.2,18.9,26.7,37c-1.4,16.3-14.3,29.1-30.6,30.4
			c-17.2,1.3-32.8-9.4-36.6-25.4c-4-16.5,4.2-32.3,20-40c3.3-1.6,8.5,0.1,10-5.1C202.1,9.1,203.1,9.1,204.1,9.1z"/>
		<path fill="#030303" d="M425.8,57.6c0.5,4.5,1.4,6.6,0.8,8.3c-8.1,23.7,6.7,34.3,24.2,44.5c14.5,8.3,28,18.3,41.8,27.7
			c9.6,6.6,14.9,15.3,11.3,27.3c-3.5,11.6-11.9,17.8-23.9,17.1c-7-0.4-9.1,2.2-11.9,8.2c-12.6,27.1-34.5,39.1-65.3,36.1
			c-5.6-0.6-8,0.5-10.4,5.5c-15.4,31.9-31,63.7-46.7,95.4c-2.4,4.9-1.7,9.9-1.8,14.9c-0.1,43.7-0.2,87.3,0,131
			c0,11.9-4.1,21.3-15.5,25.3c-9.9,3.5-19,0.6-25.8-8c-4.4-5.6-4.3-12.2-4.3-18.8c0.1-43.7-0.3-87.3,0.3-131
			c0.1-9.9-2.4-12.8-12.5-12.6c-30.4,0.7-60.9,0.6-91.4,0c-9-0.2-12.8,3.8-17.8,10.3c-13.1,16.8-12.8,32.5-3.4,51.2
			c12,23.9,21.2,49.2,31.5,74c6.8,16.4,2.8,29-10.6,34.3c-12.7,5-23.8-0.9-30.7-16.7c-14.8-34.4-29.2-69-44.3-103.2
			c-5.9-13.2-1.5-27-4.4-42.6c-11.5,16.9-23,30.7-21.4,52.2c2,27.8,0.6,55.8,0.5,83.7c-0.1,18.1-8.3,28.1-22.6,28.3
			c-14.4,0.2-22.8-9.8-22.9-27.7c-0.1-35.5,0.4-71.1-0.3-106.6c-0.2-10.8,2-20,8.7-28c8.7-10.3,10.7-22,10.3-35.3
			c-0.8-25.1-0.2-50.2-0.2-78.3c-12.5,15.6-20.8,28.7-18.8,47.1c1.7,16.6-0.1,33.5,0.5,50.2c0.3,8.7-1.1,12.4-11.3,12.2
			c-25.1-0.3-25.1,0.3-25.1-24.4c0-18.3-0.1-36.5,0-54.8c0.3-34.3,20.6-54.8,55-55.2c28.9-0.3,57.9-0.8,86.8,0.2
			c13,0.4,16.3-3.8,15.6-16.2c-1.1-19.2-0.5-38.6-0.2-57.8c0.4-21.8,14.5-36.8,34.1-36.7c19.1,0.1,33.4,14.2,33.7,35.4
			c0.1,9.2,3.6,12.1,11.8,13.7c11.9,2.3,23.6,5.9,35.3,8.9c11.2,2.8,19.3,8.9,16,21.3c-3.3,12.3-13.4,13.8-24.5,11.1
			c-9.8-2.4-19.7-4.6-29.5-7.3c-6.3-1.7-8.7-0.8-9.1,6.7c-0.9,20.8-1.2,19.1,19.4,21.2c23.5,2.4,39.3-6,54.9-23.3
			C348.1,136.3,386.4,98.4,425.8,57.6z M408.9,215.4c22.7-1.5,37.3-9.8,46.3-26.9c2.4-4.6,4.9-8.8-3.1-11.4
			c-24.2-7.9-29.2-6.1-40.5,16.3c-1.8,3.6-3.3,7.4-5.4,10.7C401.2,212.1,402.9,215.9,408.9,215.4z"/>
		<path fill="#F4F4F4" d="M408.9,215.4c-6.1,0.5-7.7-3.3-2.7-11.3c2.1-3.4,3.6-7.2,5.4-10.7c11.3-22.4,16.2-24.2,40.5-16.3
			c8,2.6,5.5,6.8,3.1,11.4C446.2,205.6,431.6,214,408.9,215.4z"/>
	</g>
</g>
</svg>
