<?xml version="1.0" encoding="utf-8"?>
<!-- Generator: Adobe Illustrator 21.0.2, SVG Export Plug-In . SVG Version: 6.00 Build 0)  -->
<svg version="1.1" id="Layer_1" xmlns="http://www.w3.org/2000/svg" xmlns:xlink="http://www.w3.org/1999/xlink" x="0px" y="0px"
	 viewBox="0 0 512 512" enable-background="new 0 0 512 512" xml:space="preserve">
<g>
	<g>
		<path fill="#FFFFFF" d="M508.9,231.1c0,70.4,0,140.7,0,211.1c-167.4,0-334.8,0-502.2,0c0-125.2,0-250.4,0-375.6
			c167.4,0,334.8,0,502.2,0c0,51.9,0,103.7,0,155.6c-11.7-33.3-22.3-40.8-58-40.8c-49.2,0-98.5,0-147.7,0c-3.9,0-7.7-0.4-12.3-0.6
			c3.7-10.1,7.5-18.5,10-27.3c12.3-44-13.3-81.8-55.6-82.9c-9.8-0.2-13.7,2.9-14.5,13.1c-1.7,22.5-7.9,44-23.4,61.1
			c-19.8,21.9-42.9,40.7-58.7,66.4c-6.2,10.1-21,8.6-30.9,1.1c-6.6-5-15.4-9.1-23.5-9.7c-18.4-1.3-37-0.3-55.5,0
			c-20.2,0.3-29.2,9-29.3,29.1C9.2,282.8,9,333.9,8.9,385c0,19.7,11.1,30.5,31.1,30.6c9.3,0,18.5,0.2,27.8,0
			c18.5-0.4,38.2,4.2,52.8-12.7c0.4-0.5,1.4-0.6,2-0.6c20.9,0.2,43.1-3.9,61.1,10.3c26.4,20.8,55.7,29.6,89,26.4
			c5.9-0.6,11.8-0.1,17.8-0.1c33-0.1,51.5-14.2,60.6-45.9c10.5-37,21.2-73.9,31.6-110.9c1.9-6.7,4.8-9.4,12.2-9.2
			c18.5,0.6,37,0.2,55.5,0.2C486.1,272.9,497.3,264.8,508.9,231.1z"/>
		<path d="M508.9,231.1c-11.6,33.7-22.8,41.8-58.4,41.9c-18.5,0.1-37,0.4-55.5-0.2c-7.4-0.2-10.3,2.5-12.2,9.2
			c-10.3,37-21,73.9-31.6,110.9c-9,31.7-27.5,45.8-60.6,45.9c-5.9,0-11.9-0.5-17.8,0.1c-33.3,3.2-62.6-5.7-89-26.4
			c-18.1-14.2-40.2-10.1-61.1-10.3c-0.7,0-1.6,0.2-2,0.6c-14.6,16.9-34.3,12.3-52.8,12.7c-9.3,0.2-18.5,0.1-27.8,0
			C20,415.5,8.9,404.7,8.9,385C9,333.9,9.2,282.8,9.5,231.7c0.1-20,9.1-28.7,29.3-29.1c18.5-0.3,37.1-1.3,55.5,0
			c8.1,0.6,16.9,4.7,23.5,9.7c9.8,7.4,24.7,8.9,30.9-1.1c15.7-25.7,38.9-44.5,58.7-66.4c15.4-17.1,21.6-38.6,23.4-61.1
			c0.8-10.2,4.8-13.4,14.5-13.1c42.3,1.1,67.9,38.8,55.6,82.9c-2.5,8.8-6.2,17.2-10,27.3c4.6,0.3,8.4,0.6,12.3,0.6
			c49.2,0,98.5,0,147.7,0c35.6,0,46.3,7.5,58,40.8C508.9,225.2,508.9,228.1,508.9,231.1z M124.7,384.3c9,0,16.4,0.1,23.7,0
			c16.8-0.3,33,3.4,45.9,13.8c23.7,19.1,50.1,25.8,79.8,23c5.9-0.5,11.8,0,17.8-0.1c23.3-0.3,35.2-9.3,41.8-31.9
			c11.7-40.5,23.6-80.9,34.7-121.5c2.7-9.8,7.5-12.8,17.2-12.6c22.6,0.5,45.1,0.2,67.7,0.2c23.5,0,37.5-10.9,37.1-28.7
			c-0.4-17.5-14.1-27.5-37.1-27.5C397,199,340.8,199,284.5,199c-16.4,0-18.8-4-13-19.5c5-13.4,11.1-26.8,13.9-40.7
			c5.1-26.2-12.6-48.8-36.6-48.6c-0.5,1.6-1.2,3.3-1.5,5.1c-4.6,29.9-17.3,55.2-39.9,75.9c-12.7,11.6-25.3,24.3-34.8,38.5
			c-11.4,17-23.5,29.3-45.6,26.4c-0.6-0.1-1.2,0.6-2.2,1.2C124.7,285.7,124.7,334.4,124.7,384.3z M26.7,308.9
			c0,25.2,0.2,50.4-0.1,75.5c-0.1,9.3,3.2,13.6,12.9,13.5c18.1-0.4,36.3-0.4,54.4,0c9.8,0.2,12.9-4.2,12.9-13.5
			c-0.2-50.4-0.3-100.7,0-151.1c0.1-10.3-4.3-13.7-14.1-13.4c-17.4,0.4-34.8,0.5-52.2,0c-10.9-0.4-14.2,4.3-14,14.6
			C27,259.3,26.7,284.1,26.7,308.9z"/>
		<path fill="#FFFFFF" d="M124.7,384.3c0-49.9,0-98.5,0-147c1-0.5,1.6-1.2,2.2-1.2c22.1,3,34.2-9.3,45.6-26.4
			c9.5-14.3,22.1-26.9,34.8-38.5c22.7-20.7,35.3-46,39.9-75.9c0.3-1.8,1-3.5,1.5-5.1c24-0.1,41.8,22.4,36.6,48.6
			c-2.7,14-8.8,27.3-13.9,40.7c-5.8,15.5-3.4,19.5,13,19.5c56.2,0,112.5,0,168.7-0.1c23,0,36.6,10,37.1,27.5
			c0.4,17.8-13.6,28.7-37.1,28.7c-22.6,0-45.2,0.4-67.7-0.2c-9.7-0.2-14.5,2.8-17.2,12.6c-11.1,40.6-23,81-34.7,121.5
			c-6.5,22.6-18.5,31.6-41.8,31.9c-5.9,0.1-11.9-0.5-17.8,0.1c-29.6,2.8-56.1-3.9-79.8-23c-12.9-10.4-29.1-14.1-45.9-13.8
			C141.1,384.4,133.7,384.3,124.7,384.3z"/>
		<path fill="#FFFFFF" d="M26.7,308.9c0-24.8,0.3-49.6-0.1-74.4c-0.2-10.3,3.1-15,14-14.6c17.4,0.6,34.8,0.5,52.2,0
			c9.8-0.2,14.1,3.1,14.1,13.4c-0.3,50.4-0.2,100.7,0,151.1c0,9.3-3.1,13.7-12.9,13.5c-18.1-0.4-36.3-0.4-54.4,0
			c-9.7,0.2-13-4.1-12.9-13.5C26.9,359.3,26.7,334.1,26.7,308.9z"/>
	</g>
</g>
</svg>
