<?xml version="1.0" encoding="utf-8"?>
<!-- Generator: Adobe Illustrator 21.0.2, SVG Export Plug-In . SVG Version: 6.00 Build 0)  -->
<svg version="1.1" id="Layer_1" xmlns="http://www.w3.org/2000/svg" xmlns:xlink="http://www.w3.org/1999/xlink" x="0px" y="0px"
	 viewBox="0 0 512 512" enable-background="new 0 0 512 512" xml:space="preserve">
<g>
	<g>
		<path fill="#FFFFFF" d="M81.4,225.5c0-50.8,0-101.6,0-152.9c69.4,0,138.7,0,208.1,0c-11.4,5.2-15,14.2-15.3,26.4
			c-0.3,12.9-1.3,26.3-5.1,38.5c-4.9,16.1-13,31.2-19.4,46.9c-9.6,23.6-28,35.5-52.2,39.4c-2.9,0.5-7.6-1.3-9.3-3.6
			c-6.4-8.4-14.3-11.9-24.7-11.7c-15.9,0.3-31.9,0.9-47.7-0.2C100.3,207.2,89.1,212.2,81.4,225.5z"/>
		<path fill="#FFFFFF" d="M312.8,72.6c41.7,0,83.4,0,125.2,0c0,118,0,236,0,354.3c-118.8,0-237.7,0-356.6,0c0-10.3,0-21,0-31.6
			c7.7,13.2,19,18.4,34.4,17.2c13.4-1,26.9-0.2,40.3-0.2c23.7,0,28.3-3.2,36.8-24.6c19-3.6,34.7,0.4,46.6,17.1
			c8.5,11.9,21.5,16.3,36.3,16.1c25.8-0.3,51.6,0,77.5-0.1c24.2,0,38.5-10.7,45-33.8c10.9-39.1,21.6-78.3,32.4-117.4
			c8.4-30.4-2.4-49.8-32.8-59c-21.2-6.4-42.4-12.9-64.6-19.6c3.6-18.7,7.8-36.5,10.2-54.6C346.9,109.8,347.8,87.3,312.8,72.6z"/>
		<path d="M312.8,72.6c35,14.7,34,37.2,30.6,63.7c-2.4,18.1-6.6,35.9-10.2,54.6c22.2,6.7,43.4,13.2,64.6,19.6
			c30.4,9.2,41.2,28.6,32.8,59c-10.8,39.2-21.4,78.3-32.4,117.4c-6.5,23.1-20.8,33.7-45,33.8c-25.8,0-51.7-0.2-77.5,0.1
			c-14.8,0.2-27.8-4.2-36.3-16.1c-12-16.7-27.6-20.7-46.6-17.1c-8.5,21.5-13.1,24.6-36.8,24.6c-13.4,0-27-0.8-40.3,0.2
			c-15.4,1.2-26.6-4-34.4-17.2c0-56.6,0-113.2,0-169.9c7.7-13.2,19-18.3,34.3-17.2c15.8,1.1,31.8,0.4,47.7,0.2
			c10.3-0.2,18.3,3.4,24.7,11.7c1.8,2.3,6.4,4.1,9.3,3.6c24.2-3.9,42.6-15.8,52.2-39.4c6.4-15.7,14.5-30.8,19.4-46.9
			c3.8-12.2,4.7-25.6,5.1-38.5c0.3-12.2,4-21.2,15.3-26.4C297.2,72.6,305,72.6,312.8,72.6z M192.6,242.5c0,43,0,84.9,0,128.3
			c27.6-5.9,47,5.6,63.2,26.2c3.4,4.3,11.8,6.5,18,6.6c26.5,0.7,53,0.3,79.6,0.3c16.8,0,24.6-5.9,29-22.1
			c10.9-39.5,21.7-79,32.4-118.5c5.2-19.4-0.9-29.9-20.4-35.9c-22.3-6.8-44.6-13.6-66.8-20.4c-13.3-4.1-13.6-5.2-11.3-18.8
			c4.1-24.3,8.7-48.6,11.1-73.1c1.5-15.3-9.7-24.7-24.9-25.6c-8-0.4-10.8,1.7-11.4,10.4c-0.9,15-2.3,30.3-6.5,44.7
			c-4.6,15.8-12.8,30.6-18.9,46c-9.6,24.1-27.6,38.8-51.4,47.1C207.3,240,199.9,240.9,192.6,242.5z M174.8,310.4
			c0-24.1-0.2-48.1,0.1-72.2c0.1-8.9-3-13.1-12.3-12.9c-17.3,0.4-34.7,0.4-52,0c-9.3-0.2-12.4,3.9-12.3,12.8
			c0.2,48.1,0.3,96.2,0,144.3c-0.1,9.8,3.9,13.2,13.4,12.9c16.6-0.4,33.3-0.5,49.9,0c10.3,0.3,13.6-4.1,13.5-13.9
			C174.5,357.8,174.8,334.1,174.8,310.4z"/>
		<path fill="#FFFFFF" d="M192.6,242.5c7.3-1.6,14.8-2.5,21.7-4.9c23.8-8.3,41.8-23,51.4-47.1c6.1-15.4,14.3-30.2,18.9-46
			c4.2-14.3,5.6-29.7,6.5-44.7c0.5-8.7,3.4-10.8,11.4-10.4c15.2,0.8,26.4,10.3,24.9,25.6c-2.4,24.5-7,48.8-11.1,73.1
			c-2.3,13.6-2,14.7,11.3,18.8c22.3,6.8,44.6,13.6,66.8,20.4c19.5,6,25.7,16.6,20.4,35.9c-10.7,39.5-21.5,79-32.4,118.5
			c-4.5,16.2-12.3,22-29,22.1c-26.5,0.1-53.1,0.4-79.6-0.3c-6.2-0.2-14.6-2.3-18-6.6c-16.2-20.6-35.5-32.1-63.2-26.2
			C192.6,327.4,192.6,285.5,192.6,242.5z"/>
		<path fill="#FFFFFF" d="M174.8,310.4c0,23.7-0.3,47.4,0.1,71.1c0.2,9.9-3.1,14.3-13.5,13.9c-16.6-0.5-33.3-0.4-49.9,0
			c-9.4,0.2-13.4-3.1-13.4-12.9c0.3-48.1,0.2-96.2,0-144.3c0-8.9,3-13,12.3-12.8c17.3,0.4,34.7,0.4,52,0c9.3-0.2,12.4,4,12.3,12.9
			C174.6,262.3,174.8,286.3,174.8,310.4z"/>
	</g>
</g>
</svg>
