<?xml version="1.0" encoding="utf-8"?>
<!-- Generator: Adobe Illustrator 21.0.2, SVG Export Plug-In . SVG Version: 6.00 Build 0)  -->
<svg version="1.1" id="Layer_1" xmlns="http://www.w3.org/2000/svg" xmlns:xlink="http://www.w3.org/1999/xlink" x="0px" y="0px"
	 viewBox="0 0 512 512" enable-background="new 0 0 512 512" xml:space="preserve">
<g>
	<g>
		<path fill="#FCFCFC" d="M503.2,278.4c0,72-0.1,143.9,0.2,215.9c0,7.6-1.5,9.2-9.2,9.2c-158.4-0.3-316.8-0.3-475.1,0
			c-7.6,0-9.2-1.5-9.2-9.2c0.3-158.4,0.3-316.8,0-475.1c0-7.6,1.5-9.2,9.2-9.2c158.4,0.3,316.8,0.3,475.1,0c7.6,0,9.2,1.5,9.2,9.2
			c-0.3,83-0.2,166-0.2,249.1c-6.4-2.6-2.6-7.9-2.7-11.7c-0.8-39.3-9.2-76.7-28.3-111.3C420.9,52.4,318.8,4.5,213.4,23.4
			C107.6,42.3,25,133.3,18.2,238.3C9,380.3,125.8,497.2,268,491.4c113-4.6,215.4-88.8,230.2-206.6
			C498.6,281.9,497.3,277.2,503.2,278.4z"/>
		<path fill="#141414" d="M503.2,278.4c-5.9-1.2-4.6,3.5-5,6.4C483.4,402.7,381,486.9,268,491.4C125.8,497.2,9,380.3,18.2,238.3
			c6.8-105,89.4-196,195.2-215c105.4-18.9,207.5,29,258.9,121.9c19.1,34.5,27.4,71.9,28.3,111.3c0.1,3.8-3.7,9.2,2.7,11.7
			C503.2,271.6,503.2,275,503.2,278.4z M211.7,155c0,12.8,0.4,22.5-0.1,32.2c-0.3,6.4,1.7,8.8,8.2,9.9c11.3,1.9,22.6,4.4,33.4,8.1
			c12.3,4.2,23.5,8.2,32.5-6c2.3-3.6,7.5-5.4,11.6-7.7c21.1-12,43.8-20.4,66.7-28.1c30.3-10.2,60.8-19.4,93.9-21.7
			c-2.4-4-3.8-6.5-5.5-9C401.5,54.9,301.8,14.4,211,34.7C137.7,51.1,84,93,49.7,159.8c-4,7.8-4.3,10.6,6.4,11.7
			c44.8,4.4,89.4,10.6,133.6,19.5c8,1.6,12.8,1.5,11.9-8.9c-0.8-8.3-0.2-16.7-0.2-25.8c-6.8,2.6-10.9,7.4-15.8,11.2
			c-2.7,2.1-5.5,4.9-8.8,1.4c-3.7-3.9-0.9-7.1,2.1-9.7c4.2-3.6,8.2-7.7,13-10.2c10.5-5.5,12.1-13.4,7.9-24.5
			c-5.7,4.6-11,8.8-16.2,12.9c-2.5,1.9-5.1,3.4-7.9,0.5c-3.2-3.4-1.5-6.3,1.3-8.7c5.2-4.3,10.2-9.3,16.2-12.4
			c8.9-4.6,10.1-11.2,7.3-21.3c-5.9,4.5-11.2,8.4-16.3,12.6c-3.3,2.7-6.8,4.7-9.9,0.9c-2.6-3.2-0.1-6.2,2.6-8.7
			c7.6-6.9,15.9-12.7,25-17.5c4.1-2.2,8-1.9,12.1,0.4c9.1,5,16.3,12.2,23.4,19.6c2.2,2.3,3.7,4.9,1.2,7.8c-3,3.5-6.1,1.8-8.9-0.5
			c-5.4-4.4-8.8-11.3-16.5-13.7c-2.9,9.5-1.1,16,8.1,20.8c5.5,2.8,9.9,7.9,14.5,12.3c2.4,2.2,2.9,5.4,0.3,7.9
			c-2.6,2.4-5.7,1.9-7.9-0.6c-4.2-4.7-8.8-8.9-14.9-12c-3.3,11.7-1,20.1,9.7,25.7c4.4,2.3,8,6.2,11.8,9.6c2.8,2.5,4.4,5.4,1.1,8.7
			c-2.8,2.8-5.4,1.4-7.8-0.7C223.5,164.6,218.9,160.9,211.7,155z M378.7,295.1c-2.6-3-5.1-3.5-7.6-3.9c-26.1-4.4-47.7,5.6-66.4,22.2
			c-13.4,11.8-27.2,23.1-40.7,34.8c-5.9,5.1-11.6,7.2-19.3,7.2c-60.4-0.4-120.8-0.2-181.2-0.7c-10.3-0.1-11.6,2.1-6.3,10.8
			c10.4,17.2,22.5,32.9,36.2,47.5c13.5,14.4,28,25.8,49.8,20.2c5.2-1.3,11-0.6,16.5-0.1c6.5,0.6,11-1.8,15.4-6.6
			c15-16.3,31.5-31,51.3-41.4c28.9-15.2,57.8-16.4,87.5-0.5c-10.7,3.9-20.8,7.3-30.6,11.3c-5,2-11.5,4.5-11.4,10.6
			c0.1,6,6.6,8.2,11.5,10.6c35.9,17.9,74.2,19.4,113.1,16.4c4-0.3,7.2-2.2,10.2-4.7c21.5-17.7,39.2-38.7,53.4-62.8
			c4.7-8,1.6-9.2-5.7-9.3c-10.2-0.1-20.4-0.5-30.5-1.4c-17.8-1.5-35.5-3.8-52.1-11.1c-14.7-6.5-20.7-18.4-16.4-31.8
			C358.9,301.6,368.1,298.2,378.7,295.1z M184,268.2c48.1,0,96.1,0.1,144.2-0.1c3.7,0,9.2,3,11-2.4c1.4-4.1-1.7-8.1-4.5-11.4
			c-10.7-12.3-24.8-19-39.7-24.5c-79.7-29.1-163.2-39-246.7-48.8c-7.1-0.8-8.5,2.8-10.1,8.1c-6.7,22.5-10.2,45.4-10.4,69
			c0,8.6,2.6,10.3,10.7,10.3C87,268,135.5,268.2,184,268.2z M345.7,278.5c-42.6,0-85.1,0-127.7,0c-59.6,0-119.2,0.1-178.7-0.2
			c-7.8,0-10.4,1.4-9,9.7c2.8,16.8,7.4,33.1,13.2,49.1c2.1,5.7,5.3,7.4,11.3,7.4c63-0.1,125.9,0.2,188.9,0.3c3.8,0,7.4,0.2,10.7-2.7
			c10-8.6,20.8-16.2,30.3-25.4C302.3,299.7,321.4,285.6,345.7,278.5z M285.9,214.3c14.2,6.6,28.8,11.3,41.6,19.7
			c11,7.2,20.7,15.4,22.1,29.5c0.6,6.5,4.8,4.7,8.1,4.7c40.8,0.1,81.6-0.2,122.5,0.3c8.3,0.1,10.1-3.1,10-10.3
			c-0.8-29.1-5.7-57.2-16.2-84.6c-7.8-20.5-12.2-23.3-34.4-19.3c-47.4,8.5-92.7,23.9-135.7,45.7
			C297.2,203.2,290.3,206.7,285.9,214.3z M280.7,384.2c-9.2-1.4-15.8-0.8-22.5,0.5c-32.2,6.6-55.1,27.3-76.4,50.2
			c-5.8,6.2-11.6,9.1-19.9,8.6c-8.6-0.5-17.3-0.1-28.1-0.1c62,49.2,188,49.2,247.3,1.8c-3.6-2.1-7.4-0.7-11-0.6
			c-33.4,1.7-65.1-4.6-94.7-20.1c-19.7-10.3-19.6-24.5-1-36.3C276,387.4,277.3,386.4,280.7,384.2z M406.1,303.3
			c-8.5,0.8-15.7,1.1-22.8,2.2c-8.4,1.4-17.6,2.3-18.3,13.8c-0.6,11.2,8.4,14.1,16.1,16.9c17.3,6.1,35.5,8.1,53.8,9
			c38.6,1.9,38.6,2,47.8-35.8c7.5-30.9,7.5-30.9-24.3-30.9c-29.6,0-59.3,0-88.9,0C384.6,282.6,397.5,288.5,406.1,303.3z"/>
		<path fill="#FCFCFC" d="M211.7,155c7.2,5.9,11.8,9.6,16.3,13.3c2.5,2,5,3.4,7.8,0.7c3.3-3.3,1.7-6.2-1.1-8.7
			c-3.8-3.4-7.4-7.3-11.8-9.6c-10.7-5.7-13-14-9.7-25.7c6.1,3.1,10.6,7.3,14.9,12c2.3,2.5,5.3,3,7.9,0.6c2.6-2.5,2.1-5.6-0.3-7.9
			c-4.6-4.4-9-9.4-14.5-12.3c-9.2-4.8-11-11.4-8.1-20.8c7.7,2.4,11.1,9.3,16.5,13.7c2.8,2.3,5.9,3.9,8.9,0.5c2.5-2.9,1-5.5-1.2-7.8
			c-7.1-7.4-14.3-14.5-23.4-19.6c-4.1-2.3-7.9-2.6-12.1-0.4c-9.1,4.8-17.4,10.6-25,17.5c-2.7,2.5-5.2,5.5-2.6,8.7
			c3.1,3.8,6.7,1.8,9.9-0.9c5.1-4.2,10.4-8.1,16.3-12.6c2.8,10.2,1.6,16.7-7.3,21.3c-5.9,3.1-10.9,8-16.2,12.4
			c-2.8,2.3-4.5,5.3-1.3,8.7c2.7,2.9,5.4,1.4,7.9-0.5c5.3-4.1,10.5-8.4,16.2-12.9c4.2,11.1,2.7,19-7.9,24.5
			c-4.8,2.5-8.9,6.6-13,10.2c-3,2.6-5.8,5.7-2.1,9.7c3.3,3.6,6.1,0.7,8.8-1.4c4.9-3.8,9-8.7,15.8-11.2c0,9.1-0.6,17.5,0.2,25.8
			c1,10.4-3.9,10.5-11.9,8.9c-44.2-9-88.8-15.2-133.6-19.5c-10.7-1-10.4-3.9-6.4-11.7C84,93,137.7,51.1,211,34.7
			c90.8-20.3,190.5,20.2,241.3,98c1.6,2.5,3.1,5,5.5,9c-33.1,2.3-63.6,11.5-93.9,21.7c-22.9,7.7-45.6,16.1-66.7,28.1
			c-4.1,2.3-9.3,4.1-11.6,7.7c-9,14.1-20.2,10.1-32.5,6c-10.8-3.7-22.1-6.1-33.4-8.1c-6.4-1.1-8.5-3.5-8.2-9.9
			C212,177.5,211.7,167.8,211.7,155z"/>
		<path fill="#FCFCFC" d="M378.7,295.1c-10.5,3.1-19.8,6.5-23.2,17.1c-4.3,13.4,1.7,25.3,16.4,31.8c16.5,7.3,34.3,9.6,52.1,11.1
			c10.1,0.8,20.4,1.2,30.5,1.4c7.4,0.1,10.4,1.3,5.7,9.3c-14.2,24.1-31.8,45.1-53.4,62.8c-3,2.5-6.2,4.4-10.2,4.7
			c-38.9,3.1-77.2,1.5-113.1-16.4c-4.9-2.4-11.4-4.6-11.5-10.6c-0.1-6.1,6.5-8.5,11.4-10.6c9.8-4,19.8-7.4,30.6-11.3
			c-29.7-15.9-58.6-14.7-87.5,0.5c-19.8,10.4-36.3,25.1-51.3,41.4c-4.4,4.8-8.9,7.2-15.4,6.6c-5.5-0.5-11.3-1.2-16.5,0.1
			c-21.8,5.7-36.3-5.7-49.8-20.2c-13.7-14.6-25.8-30.4-36.2-47.5c-5.3-8.8-4-10.9,6.3-10.8c60.4,0.5,120.8,0.3,181.2,0.7
			c7.7,0.1,13.4-2,19.3-7.2c13.4-11.7,27.3-23,40.7-34.8c18.8-16.6,40.3-26.6,66.4-22.2C373.6,291.6,376,292,378.7,295.1z"/>
		<path fill="#FCFCFC" d="M184,268.2c-48.5,0-97-0.2-145.5,0.2c-8,0.1-10.7-1.6-10.7-10.3c0.1-23.6,3.6-46.5,10.4-69
			c1.6-5.3,3-8.9,10.1-8.1c83.5,9.8,167,19.7,246.7,48.8c14.8,5.4,29,12.2,39.7,24.5c2.8,3.2,5.9,7.3,4.5,11.4
			c-1.8,5.4-7.3,2.3-11,2.4C280.2,268.2,232.1,268.2,184,268.2z"/>
		<path fill="#FCFCFC" d="M345.7,278.5c-24.3,7.1-43.4,21.2-61,38.3c-9.4,9.1-20.3,16.8-30.3,25.4c-3.3,2.9-6.9,2.7-10.7,2.7
			c-63-0.1-125.9-0.4-188.9-0.3c-6,0-9.2-1.7-11.3-7.4c-5.9-16-10.4-32.2-13.2-49.1c-1.4-8.3,1.1-9.8,9-9.7
			c59.6,0.3,119.2,0.2,178.7,0.2C260.6,278.5,303.2,278.5,345.7,278.5z"/>
		<path fill="#FCFCFC" d="M285.9,214.3c4.4-7.6,11.3-11.1,17.8-14.5c43-21.8,88.4-37.1,135.7-45.7c22.2-4,26.6-1.2,34.4,19.3
			c10.4,27.3,15.4,55.5,16.2,84.6c0.2,7.3-1.7,10.4-10,10.3c-40.8-0.4-81.6-0.2-122.5-0.3c-3.3,0-7.5,1.9-8.1-4.7
			c-1.3-14-11.1-22.3-22.1-29.5C314.7,225.6,300.1,220.9,285.9,214.3z"/>
		<path fill="#FCFCFC" d="M280.7,384.2c-3.4,2.3-4.8,3.2-6.1,4.1c-18.6,11.7-18.7,25.9,1,36.3c29.5,15.5,61.3,21.8,94.7,20.1
			c3.6-0.2,7.4-1.6,11,0.6c-59.4,47.4-185.4,47.3-247.3-1.8c10.8,0,19.5-0.4,28.1,0.1c8.3,0.5,14.1-2.4,19.9-8.6
			c21.3-22.9,44.2-43.6,76.4-50.2C264.9,383.3,271.5,382.8,280.7,384.2z"/>
		<path fill="#FCFCFC" d="M406.1,303.3c-8.6-14.8-21.5-20.7-36.5-24.8c29.6,0,59.3,0,88.9,0c31.9,0,31.9,0,24.3,30.9
			c-9.2,37.9-9.2,37.7-47.8,35.8c-18.3-0.9-36.5-2.8-53.8-9c-7.8-2.7-16.8-5.7-16.1-16.9c0.7-11.6,9.9-12.5,18.3-13.8
			C390.4,304.4,397.7,304.1,406.1,303.3z"/>
	</g>
</g>
</svg>
