<?xml version="1.0" encoding="utf-8"?>
<!-- Generator: Adobe Illustrator 21.0.2, SVG Export Plug-In . SVG Version: 6.00 Build 0)  -->
<svg version="1.1" id="Layer_1" xmlns="http://www.w3.org/2000/svg" xmlns:xlink="http://www.w3.org/1999/xlink" x="0px" y="0px"
	 viewBox="0 0 512 512" enable-background="new 0 0 512 512" xml:space="preserve">
<g>
	<g>
		<path fill="#FFFFFF" d="M10.4,394.2c0-112.4,0-224.8,0-337.2c128,0,255.9,0,383.9,0c-47.8,25.5-69,60-52.9,98.7
			c20.6,49.8,46.9,97.2,73.3,150.8c22.3-43.7,41.9-81.7,61.3-119.9c31.2-61.3,19.8-97.9-40.1-129.6c27.7,0,55.3,0,83,0
			c0,136.6,0,273.2,0,409.8c-169.4,0-338.9,0-508.3,0c0-22.5,0-45,0-67.4c35.6,17.7,70.7,36.4,106.9,52.5c10,4.4,25,4.6,35,0.3
			c31.7-13.6,61.7-31.1,93.2-45.2c7.9-3.6,20.2-3.5,28.2,0.1c32.2,14.6,63.4,31.5,95.4,46.9c6.4,3.1,15.9,6.3,21.3,3.7
			c39.6-18.6,78.6-38.5,118.3-58.4c-18.1-35.9-34.6-68.7-51.5-102.1c-35.9,34.2,2.9,59.5,6.8,89.2c-22.8,11.4-44.8,22.4-70,34.9
			c-7.4-43.4-13.7-83.3-21.3-123c-1.8-9.5-5.4-21.9-12.5-26.6c-20.9-13.9-46.1-21.9-65.6-37.2c-24.7-19.5-44.4-22.6-69.1-0.5
			c-17.6,15.7-39.4,26.7-63.7,42.8c-19.8-21.1-38.4-41-58.6-62.6c-6.1,12.1-11.4,22.8-16.9,33.4C61,296.4,35.7,345.3,10.4,394.2z"/>
		<path d="M10.4,394.2c25.3-48.9,50.7-97.8,76-146.7c5.5-10.6,10.8-21.2,16.9-33.4c20.2,21.6,38.8,41.5,58.6,62.6
			c24.3-16,46.1-27,63.7-42.8c24.7-22.1,44.4-19,69.1,0.5c19.5,15.4,44.7,23.3,65.6,37.2c7,4.7,10.6,17.1,12.5,26.6
			c7.6,39.7,13.9,79.6,21.3,123c25.2-12.6,47.2-23.5,70-34.9c-3.9-29.6-42.7-55-6.8-89.2c16.8,33.4,33.4,66.2,51.5,102.1
			c-39.8,19.9-78.7,39.9-118.3,58.4c-5.4,2.5-14.9-0.7-21.3-3.7c-31.9-15.3-63.1-32.3-95.4-46.9c-7.9-3.6-20.2-3.6-28.2-0.1
			c-31.5,14.2-61.5,31.6-93.2,45.2c-10,4.3-25,4.1-35-0.3C81,435.9,45.9,417.1,10.4,399.4C10.4,397.7,10.4,396,10.4,394.2z
			 M275.1,266.1c0,31.5-0.4,62.4,0.4,93.2c0.2,5.7,3.8,13.9,8.4,16.4c23.8,13.1,48.5,24.7,77.8,39.3
			C346.7,353.8,355.9,286.2,275.1,266.1z M157.7,414.8c28.9-14.3,52.9-25.6,76.2-38.3c4.8-2.6,9.4-10.4,9.5-15.9
			c0.9-31.5,0.4-63.1,0.4-102.5c-25.5,19.8-53.8,31.3-63.4,51.7C166.3,339.8,165.3,376,157.7,414.8z M124,420.9
			c6.1-31,11.5-57.9,16.8-84.8c8.2-41.4,7.8-42.3-29.8-67.4c-19.1,38.3-38.1,76.3-58.2,116.5C76.9,397.2,98.8,408.2,124,420.9z"/>
		<path d="M435.7,57.1c59.9,31.7,71.3,68.3,40.1,129.6c-19.4,38.1-38.9,76.2-61.3,119.9c-26.4-53.6-52.7-101-73.3-150.8
			c-16-38.7,5.1-73.2,52.9-98.7C408.1,57.1,421.9,57.1,435.7,57.1z M461.4,133.5c-0.4-25.2-21.3-45.6-46.5-45.6
			c-25.2,0-46,20.6-46.3,45.8c-0.3,26,22,47.9,47.8,47.1C441.5,180,461.9,158.6,461.4,133.5z"/>
		<path fill="#FFFFFF" d="M275.1,266.1c80.9,20.1,71.7,87.7,86.6,148.9c-29.3-14.6-53.9-26.2-77.8-39.3c-4.6-2.5-8.3-10.7-8.4-16.4
			C274.7,328.4,275.1,297.6,275.1,266.1z"/>
		<path fill="#FFFFFF" d="M157.7,414.8c7.6-38.8,8.5-75,22.7-105c9.6-20.3,37.9-31.9,63.4-51.7c0,39.4,0.5,71-0.4,102.5
			c-0.2,5.5-4.8,13.3-9.5,15.9C210.6,389.2,186.6,400.5,157.7,414.8z"/>
		<path fill="#FFFFFF" d="M124,420.9c-25.2-12.6-47.2-23.7-71.2-35.7c20.1-40.2,39.1-78.2,58.2-116.5c37.6,25.1,38,26,29.8,67.4
			C135.5,363,130.2,389.9,124,420.9z"/>
		<path fill="#FFFFFF" d="M461.4,133.5c0.4,25-20,46.5-45,47.3c-25.9,0.9-48.1-21-47.8-47.1c0.3-25.2,21.1-45.8,46.3-45.8
			C440.2,87.9,461,108.3,461.4,133.5z"/>
	</g>
</g>
</svg>
