<?xml version="1.0" encoding="utf-8"?>
<!-- Generator: Adobe Illustrator 21.0.2, SVG Export Plug-In . SVG Version: 6.00 Build 0)  -->
<svg version="1.1" id="Layer_1" xmlns="http://www.w3.org/2000/svg" xmlns:xlink="http://www.w3.org/1999/xlink" x="0px" y="0px"
	 viewBox="0 0 512 512" enable-background="new 0 0 512 512" xml:space="preserve">
<g>
	<g>
		<path fill="#FBFBFB" d="M11.6,296.9c0-90.7,0.2-181.5-0.2-272.2c0-8.7,1.8-10.4,10.4-10.4c159.1,0.3,318.3,0.3,477.4,0
			c8.7,0,10.4,1.7,10.4,10.4c-0.3,155.3-0.3,310.5,0,465.8c0,8.7-1.7,10.4-10.4,10.4c-159.1-0.3-318.3-0.3-477.4,0
			c-8.7,0-10.5-1.7-10.4-10.4c0.5-57.7,0.3-115.5,0.3-173.2c2.9-0.9,4.4,1.5,6.1,2.9c20,17.4,42.5,28.1,69.6,27.7
			c22.8-0.3,41.7,9.4,59.8,22.6c19.6,14.2,40.3,26.8,60.4,40.3c6.6,4.5,13.4,8,21.4,8c29,0,53,10.8,73.8,31.2
			c8.7,8.6,17.7,18.1,30.6,21.4c32.8,8.3,65.7,16.7,98.4,25.2c9.3,2.4,16.9,0.8,19.7-9c2.8-9.9-2.8-15.6-12.1-18
			c-14-3.7-27.9-8.3-42.2-10.6c-40.3-6.5-75.4-22.9-104.2-52.2c-7.1-7.3-15.7-10.9-26-11c-27-0.5-50.5-9.9-72-26.4
			c-16.4-12.7-34.8-22.9-51.8-34.9c-9.8-6.9-20.2-10.1-32.1-11.8C86.1,319,59,321.4,39.1,301C31,292.6,21.6,292.6,11.6,296.9z
			 M265.7,80c25.8,8.2,48.1,15.8,70.8,22.3c9.5,2.7,14.9,7.5,16.3,17.4c5.9,41.5,38.7,65.7,62.5,95.5c4.8,6,12.3,5.8,18.3,0.8
			c6-5,7-11.5,2.6-18.2c-2.4-3.6-5-7.3-8.2-10.1c-32.2-28.8-48.1-65.4-52.3-107.8c-0.3-2.9-1.2-5.7-1.7-8.5
			c-1.7-9.4-7.2-16.2-15.7-19.6c-41.5-16.5-83.7-30.5-128.9-32.3c-14.9-0.6-28.3,3.5-35.6,17.7c-6.8,13.3-1.2,25.2,6.5,36.6
			c19.5,28.9,38.5,58.1,58.3,86.8c5.6,8.1,7.8,15.7,6.3,25.6c-4.3,27.8-8.1,55.6-11.6,83.5c-2.1,16.5,4.7,26.7,17.8,27.9
			c12.5,1.1,20.7-7.1,22.8-22.7c4.4-32.6,8.6-65.3,13.4-97.9c1.3-8.7,0-16-4.1-23.7C291.2,130,279.4,106.7,265.7,80z M141.9,315.3
			c56.3,0.2,101.5-45.7,101.6-103.3c0.1-56.7-44.8-103.5-99.8-103.9c-56-0.4-102,45.7-102.6,102.8C40.7,268.1,86,315.1,141.9,315.3z
			 M401.8,433.9c56.2,0.3,101.6-45.7,101.7-103.2c0.1-57-44.3-103.5-99.5-103.9c-56.7-0.5-101.8,44.6-102.2,102.4
			C301.4,387.1,345.8,433.6,401.8,433.9z M418,99.4c20.6,0,37.9-17.3,38.1-38c0.2-20.5-16.5-37.4-36.8-37.3
			c-20.7,0.1-37.8,17.4-38,38.2C381.2,83,397.4,99.4,418,99.4z"/>
		<path fill="#080808" d="M11.6,296.9c10-4.3,19.3-4.3,27.5,4c19.9,20.4,46.9,18,71.8,21.6c11.9,1.7,22.3,4.9,32.1,11.8
			c17,11.9,35.4,22.2,51.8,34.9c21.5,16.6,45,26,72,26.4c10.3,0.2,18.8,3.8,26,11c28.8,29.3,63.9,45.7,104.2,52.2
			c14.3,2.3,28.2,7,42.2,10.6c9.3,2.4,14.9,8.1,12.1,18c-2.8,9.9-10.3,11.5-19.7,9c-32.8-8.5-65.6-16.9-98.4-25.2
			c-12.9-3.3-21.9-12.8-30.6-21.4c-20.8-20.3-44.7-31.1-73.8-31.2c-8,0-14.8-3.6-21.4-8c-20-13.6-40.8-26.1-60.4-40.3
			c-18.1-13.2-36.9-22.9-59.8-22.6c-27.1,0.4-49.6-10.3-69.6-27.7c-1.7-1.4-3.2-3.8-6.1-2.9C11.6,310.5,11.6,303.7,11.6,296.9z"/>
		<path fill="#050505" d="M265.7,80c13.7,26.7,25.5,50,37.7,73.1c4,7.6,5.3,15,4.1,23.7c-4.8,32.6-9,65.2-13.4,97.9
			c-2.1,15.7-10.3,23.8-22.8,22.7c-13.1-1.1-19.9-11.3-17.8-27.9c3.6-27.9,7.3-55.7,11.6-83.5c1.5-9.8-0.8-17.5-6.3-25.6
			c-19.8-28.7-38.8-57.9-58.3-86.8c-7.7-11.4-13.3-23.3-6.5-36.6c7.2-14.2,20.6-18.3,35.6-17.7c45.2,1.8,87.4,15.9,128.9,32.3
			c8.5,3.4,14,10.2,15.7,19.6c0.5,2.9,1.4,5.7,1.7,8.5c4.1,42.4,20,79,52.3,107.8c3.2,2.9,5.9,6.5,8.2,10.1
			c4.4,6.7,3.3,13.2-2.6,18.2c-6,5-13.5,5.2-18.3-0.8c-23.9-29.8-56.6-54-62.5-95.5c-1.4-9.9-6.8-14.6-16.3-17.4
			C313.8,95.8,291.5,88.2,265.7,80z"/>
		<path fill="#080808" d="M141.9,315.3C86,315.1,40.7,268.1,41.2,210.9c0.5-57.1,46.6-103.2,102.6-102.8
			c55,0.4,99.9,47.2,99.8,103.9C243.4,269.6,198.3,315.5,141.9,315.3z M215.7,211.9c0-41.5-32.2-74.9-72.4-75.3
			c-40.9-0.4-74,33.3-74,75.2c0,41.4,32.2,74.8,72.5,75.4C182.2,287.9,215.7,253.8,215.7,211.9z"/>
		<path fill="#080808" d="M401.8,433.9c-56.1-0.3-100.4-46.8-100-104.7c0.5-57.8,45.5-102.8,102.2-102.4
			c55.1,0.5,99.6,46.9,99.5,103.9C503.4,388.2,458,434.2,401.8,433.9z M400.8,405.6c40.6,1.1,74.6-32.4,75.4-74.2
			c0.8-40.8-31.7-75.3-71.8-76.3c-40.2-1-74,31.7-75.3,72.7C327.9,369.6,360.1,404.5,400.8,405.6z"/>
		<path fill="#050505" d="M418,99.4c-20.6,0-36.8-16.4-36.7-37.1c0.2-20.8,17.3-38.1,38-38.2c20.3-0.1,37,16.8,36.8,37.3
			C455.9,82.1,438.6,99.4,418,99.4z"/>
		<path fill="#FBFBFB" d="M215.7,211.9c0,41.9-33.4,76-73.9,75.4c-40.3-0.6-72.5-34.1-72.5-75.4c0-41.9,33.1-75.6,74-75.2
			C183.5,137,215.7,170.4,215.7,211.9z"/>
		<path fill="#FBFBFB" d="M400.8,405.6c-40.7-1.1-73-36.1-71.7-77.8c1.3-41,35.1-73.7,75.3-72.7c40.1,1,72.6,35.5,71.8,76.3
			C475.4,373.2,441.4,406.7,400.8,405.6z"/>
	</g>
</g>
</svg>
