<?xml version="1.0" encoding="utf-8"?>
<!-- Generator: Adobe Illustrator 21.0.2, SVG Export Plug-In . SVG Version: 6.00 Build 0)  -->
<svg version="1.1" id="Layer_1" xmlns="http://www.w3.org/2000/svg" xmlns:xlink="http://www.w3.org/1999/xlink" x="0px" y="0px"
	 viewBox="0 0 512 512" enable-background="new 0 0 512 512" xml:space="preserve">
<g>
	<g>
		<path fill="#FCFCFC" d="M259.5,142.5c79.8,0,159.5,0.1,239.3-0.2c6.3,0,7.7,1.3,7.6,7.6c-0.3,66.6-0.3,133.3,0,199.9
			c0,6.3-1.3,7.6-7.6,7.6c-160.2-0.2-320.5-0.2-480.7,0c-6.3,0-7.7-1.3-7.6-7.6c0.3-66.6,0.3-133.3,0-199.9c0-6.3,1.3-7.6,7.6-7.6
			c76.2,0.3,152.4,0.2,228.7,0.2c-2.7,2.1-5.6,4.1-8.1,6.5c-9.8,9.2-9.6,24.9,0.2,34c9.7,8.9,24.4,8.1,33.1-1.8
			C283.4,168.1,277.8,150.9,259.5,142.5z M270.4,196.3c-6.4-7.7-12.8-3.5-17.3,1.5c-9.8,11.1-21.7,15.7-36.1,15.3
			c-1.7-0.2-4.1-2-4,1.8c-15.8-6.7-25.7-18.3-30-35.1c-4.7-18.5-35.2-37.6-54.1-34.7c-6.3,1-10.4,3.8-10.6,10.9
			c-0.3,16.9,25.1,47.3,41.7,47c19.3-0.4,34,7.2,46.8,20.4c-0.3,1.4-0.2,2.4,1.7,1.5c15.3,12.6,34.4,21.2,44.1,40.9
			c-14.2,0.6-27.5-0.7-40.8,6c-7.1,3.6-5.2,4.4-2.7,8.4c-0.6,0.9-1.2,1.7-1.8,2.6c-5.7-1.8-4.1-10.7-12.7-10.8
			c-50.6-1-101.2-3.2-151.8-1.5c-5.6,0.2-11.3,1-16.8,2.1c-5.3,1-5.5,3.8-1.4,6.9c7.5,5.5,15.9,9.1,24.6,12.2
			c82.5,29.5,167.6,39.4,254.8,34.6c7.6-0.4,7.9-3.6,6.7-9.2l1-0.1l1,0.3c4.7,21,34.8,41.3,55.7,37.7c7.7-1.4,11-6,9.6-13.6
			c-1.4-7.9-5-15-9.7-22.1c35.6-6,70.2-13.6,103.5-25.8c10-3.6,19.9-7.5,28.6-13.7c1.6-1.1,4.1-2.5,2.9-4.9
			c-0.6-1.2-2.8-2.2-4.4-2.4c-6.7-0.9-13.3-1.9-20-2.1c-49.2-1.5-98.4,0.4-147.6,1.8c-4.5,0.1-6.4,1.8-8.7,5.7
			c-3.8,6.4-9.1,12.3-18.3,9.4c-0.1-0.7,0-1.4,0.2-2c7.5-0.9,12.9-4.2,15.4-13.2c-8.7,3.7-12.4-5-18.4-5.6c-6.5-0.7-6.1-3.8-6-8.2
			c0.3-13.4-0.4-26.6-6-39.1c0.2-2.4-0.4-4.6-2.2-6.4c-1.1-5.8-1.8-6.7-5.3-6.6l-0.1-0.1c0.4-7.9-3.6-10.8-11.1-9.7L270.4,196.3z
			 M117.4,328.1c-34.2-7.3-67.3-17.5-99-32.4C45.2,325.3,78.6,334.9,117.4,328.1z"/>
		<path fill="#040404" d="M259.5,142.5c18.3,8.4,23.9,25.5,12.5,38.6c-8.7,10-23.4,10.8-33.1,1.8c-9.9-9.1-10-24.7-0.2-34
			c2.5-2.4,5.4-4.3,8.1-6.5C251,142.5,255.2,142.5,259.5,142.5z"/>
		<path fill="#040404" d="M310.6,317c1.2,5.6,0.9,8.8-6.7,9.2c-87.2,4.9-172.3-5.1-254.8-34.6c-8.7-3.1-17.1-6.7-24.6-12.2
			c-4.1-3.1-4-5.9,1.4-6.9c5.5-1.1,11.2-1.9,16.8-2.1c50.6-1.7,101.2,0.5,151.8,1.5c8.6,0.2,7,9.1,12.7,10.8c2.8,2,5.5,4.5,8.5,6
			c23,11.3,47.2,10.5,71.7,6.9c2.1-0.3,6.7,1.9,5.6-3.2c-0.8-3.5-3.4-1.9-6.4-1.4c-27,4.5-53.5,5.2-77.7-10.9
			c-2.5-4-4.4-4.8,2.7-8.4c13.3-6.7,26.6-5.4,40.8-6c-9.8-19.7-28.8-28.3-44.1-40.9c-0.6-0.5-1.1-1-1.7-1.5
			C194,210.1,179.3,202.6,160,203c-16.6,0.3-42-30.1-41.7-47c0.1-7.2,4.3-10,10.6-10.9c19-2.9,49.4,16.2,54.1,34.7
			c4.3,16.9,14.2,28.4,30,35.1c0,0-0.4-0.3-0.4-0.3c-0.9,2.4,0.9,2.4,2.4,2.7c0,2.8,1.6,3.8,4.1,3.9c0.3,0.1,0.6,0.3,0.9,0.5
			c-0.3-0.2-0.6-0.3-0.9-0.5c-0.7-2.7-1.4-5.4-2.2-8c14.4,0.4,26.4-4.2,36.1-15.3c4.4-5,10.8-9.2,17.3-1.5c0.3,1.9-1,4.1,1.2,5.8
			c1.1-2.2,0.2-4-0.8-5.9c7.5-1.1,11.4,1.9,11.1,9.7c-2,0.2-3.9-2.1-5.9-0.5c-0.3,0.3,0,2,0.5,2.5c2.8,2.4,4.3,0.6,5.5-2
			c3.5-0.1,4.2,0.8,5.3,6.6c-2.1,0.8-6.3-1.9-6.2,1.9c0.1,4.9,4.6,4.8,8.4,4.5c5.6,12.5,6.3,25.7,6,39.1c-0.1,4.4-0.5,7.5,6,8.2
			c6,0.6,9.7,9.2,18.4,5.6c-2.5,9-7.9,12.3-15.4,13.2c-1,0.2-2.5-0.5-2.6,1.2c0,0.2,1.5,0.5,2.4,0.8c9.2,2.9,14.4-3,18.3-9.4
			c2.3-3.9,4.2-5.5,8.7-5.7c49.2-1.4,98.4-3.2,147.6-1.8c6.7,0.2,13.4,1.2,20,2.1c1.6,0.2,3.8,1.2,4.4,2.4c1.1,2.4-1.3,3.7-2.9,4.9
			c-8.7,6.2-18.6,10.1-28.6,13.7c-33.3,12.2-67.8,19.7-103.5,25.8c4.6,7.1,8.3,14.2,9.7,22.1c1.4,7.6-1.9,12.3-9.6,13.6
			c-20.9,3.7-51-16.7-55.7-37.7c0-2.6-0.4-5-3.4-5.8c-0.5-0.1-1.7,0.3-1.7,0.6C306.8,314.7,310,315.1,310.6,317z M306.4,306.5
			c0.5-0.8,1-1.6,1.5-2.4c0,0-0.5-0.4-0.7-0.6c-0.3,0.9-0.7,1.8-1,2.7c-0.1,0.4-0.2,0.7-0.4,1.1C306,307,306.2,306.7,306.4,306.5z
			 M267.8,235.9c-3.4,0.5-5.9,2-6,5.9c-3,1.4-5.9,2.9-6.5-2.5c-0.5-4.2-1.5-8.3-2.6-12.3c-0.5-2-0.6-5.9-4.2-3.9
			c-5.9,3.3-12.8,3.8-20,6.4c6.2,4.8,12.5,8,16.3,13.1c6.7,8.8,11.8,6.3,17.5-0.3c4.1,0,5.4-2.6,5.8-6c0.5-0.8,1-1.6,1.5-2.4
			c0-0.1-0.5-0.4-0.7-0.6C268.5,234.1,268.2,235,267.8,235.9z M272.2,276.5c0.3,0.2,0.6,0.3,0.9,0.5
			C272.9,276.8,272.6,276.7,272.2,276.5c-0.2-2.6-0.7-5-3.7-5.5c-1.2-0.2-2.1,0.6-1.8,1.8C267.3,275.8,269.7,276.3,272.2,276.5z
			 M287,236c-5,7.1-9.9,14.2-14.9,21.3c-0.9,0.3-1.8,0.6-2.7,1c0.2,0.3,0.5,0.8,0.6,0.7c0.8-0.5,1.6-1,2.4-1.5
			c10.3-3.4,14.4-11.1,14.9-21.3c1.8-2,3.4-4,0.1-6.8C287.2,231.8,287.1,233.9,287,236z M263.3,196.9c-2.7,6.7-10.9,7.8-5.7,17
			C257.5,207.1,263.8,205.6,263.3,196.9z M267.9,224.1c-1.9-4.7-2.6-9.2-9.7-8.9C260.7,219.3,261.7,223.5,267.9,224.1z M315.8,292.2
			c1.4,4.6,3.5,6.6,8.9,4.4C321.4,295.3,321.2,290.9,315.8,292.2z M260.3,268.9c2.3-2.5,6.1-3.3,5-8.4
			C263.1,263.2,257.8,262.1,260.3,268.9z M286,270.3c-1,0.9-2.4,1.7-2.3,2c0.4,1.2,1.1,2.5,2.1,3.1c1.3,0.7,2.9,0.3,2.6-1.6
			C288.2,272.6,287,271.7,286,270.3z M227.3,224.7c-1-0.8-1.7-1.4-2.5-1.9c-0.4,0.7-1.3,1.5-1.1,2.1c0.2,0.7,1.2,1.3,1.8,1.9
			C226.1,226.1,226.6,225.5,227.3,224.7z M278.4,265.1c-1-0.8-1.7-1.4-2.5-1.9c-0.4,0.7-1.3,1.5-1.1,2.1c0.2,0.7,1.2,1.3,1.8,1.9
			C277.1,266.5,277.7,265.9,278.4,265.1z M278.8,279.4c-0.5,0.3-1.3,0.5-1.4,0.9c-0.1,0.4,0.3,1.1,0.6,1.6c0.6-0.4,1.3-0.8,1.9-1.2
			C279.5,280.3,279.2,279.9,278.8,279.4z M297,280.9c-0.3-0.5-0.5-1.3-0.9-1.4c-0.4-0.1-1.1,0.4-1.6,0.6c0.4,0.6,0.8,1.3,1.2,1.9
			C296.2,281.7,296.6,281.3,297,280.9z M301.3,297.2c-0.6-0.3-1.3-0.8-1.8-0.7c-0.4,0.2-0.6,1.1-0.8,1.7c0.6,0.3,1.3,0.8,1.8,0.7
			C300.9,298.7,301,297.8,301.3,297.2z M347.5,299.4c-0.6-0.7-1.3-1.4-2-2.1c-0.2,0.6-0.9,1.4-0.7,1.8c0.4,0.8,1.2,1.5,1.8,2.2
			C346.9,300.8,347.2,300.2,347.5,299.4z M352.5,302.9c-0.3,0.6-0.5,1.2-0.8,1.8c0.6,0.3,1.3,0.8,1.8,0.7c0.4-0.2,0.6-1.1,0.8-1.7
			C353.7,303.4,353.1,303.2,352.5,302.9z M341.5,295c-0.4,0.6-0.9,1.1-0.9,1.6c0,0.5,0.5,1.1,0.7,1.6c0.3-0.5,0.9-1,0.9-1.5
			C342.2,296.2,341.8,295.7,341.5,295z"/>
		<path fill="#080808" d="M117.4,328.1c-38.8,6.9-72.2-2.7-99-32.4C50,310.6,83.2,320.7,117.4,328.1z"/>
		<path fill="#080808" d="M289.4,219.1c-3.8,0.3-8.3,0.4-8.4-4.5c-0.1-3.9,4.1-1.1,6.2-1.9C289,214.5,289.5,216.6,289.4,219.1z"/>
		<path fill="#080808" d="M217,213.1c0.7,2.7,1.4,5.4,2.2,8c0,0-0.1,0.1-0.1,0.1c-2.5-0.1-4.1-1.1-4.1-3.9c-0.1-1.5-0.9-2.4-2.4-2.7
			c0,0,0.4,0.3,0.4,0.3C212.9,211.2,215.3,212.9,217,213.1z"/>
		<path fill="#080808" d="M310.6,317c-0.6-2-3.8-2.3-3.1-5c0.1-0.3,1.2-0.8,1.7-0.6c2.9,0.8,3.4,3.2,3.4,5.8l-1-0.3L310.6,317z"/>
		<path fill="#080808" d="M270.7,196.3c1,1.8,1.8,3.7,0.8,5.9c-2.1-1.7-0.9-3.9-1.2-5.8C270.4,196.3,270.7,196.3,270.7,196.3z"/>
		<path fill="#080808" d="M304.2,287.2c-0.8-0.3-2.4-0.6-2.4-0.8c0.1-1.8,1.6-1,2.6-1.2C304.2,285.8,304.1,286.5,304.2,287.2z"/>
		<path fill="#080808" d="M206.7,223.4c0.6,0.5,1.1,1,1.7,1.5C206.5,225.8,206.5,224.8,206.7,223.4z"/>
		<path fill="#FCFCFC" d="M262.3,242.2c-5.7,6.6-10.8,9.1-17.5,0.3c-3.8-5.1-10.1-8.3-16.3-13.1c7.2-2.6,14-3.1,20-6.4
			c3.6-2,3.6,1.9,4.2,3.9c1.1,4.1,2.1,8.2,2.6,12.3c0.6,5.4,3.5,3.9,6.5,2.5c0,0,0,0.6,0,0.6L262.3,242.2z"/>
		<path fill="#FCFCFC" d="M209,280.2c24.1,16.1,50.7,15.4,77.7,10.9c2.9-0.5,5.6-2.1,6.4,1.4c1.1,5.1-3.5,2.9-5.6,3.2
			c-24.4,3.6-48.7,4.5-71.7-6.9c-3.1-1.5-5.7-4-8.5-6C207.8,281.9,208.4,281.1,209,280.2z"/>
		<path fill="#080808" d="M272.1,257.2c5-7.1,9.9-14.2,14.9-21.3c0,0,0.3,0.2,0.3,0.2c-0.5,10.2-4.7,17.9-14.9,21.3L272.1,257.2z"/>
		<path fill="#080808" d="M263.3,196.9c0.5,8.8-5.9,10.2-5.7,17C252.4,204.7,260.6,203.6,263.3,196.9z"/>
		<path fill="#080808" d="M267.9,224.1c-6.1-0.6-7.1-4.8-9.7-8.9C265.3,214.9,265.9,219.4,267.9,224.1z"/>
		<path fill="#080808" d="M315.8,292.2c5.4-1.3,5.6,3.1,8.9,4.4C319.3,298.9,317.2,296.8,315.8,292.2z"/>
		<path fill="#080808" d="M260.3,268.9c-2.5-6.8,2.9-5.7,5-8.4C266.4,265.6,262.5,266.3,260.3,268.9z"/>
		<path fill="#080808" d="M272.2,276.5c-2.5-0.2-4.9-0.7-5.5-3.7c-0.2-1.2,0.6-2,1.8-1.8C271.6,271.6,272.1,274,272.2,276.5
			L272.2,276.5z"/>
		<path fill="#080808" d="M286,270.3c1,1.4,2.2,2.3,2.4,3.5c0.4,1.9-1.3,2.4-2.6,1.6c-1-0.6-1.6-1.9-2.1-3.1
			C283.6,272,285,271.2,286,270.3z"/>
		<path fill="#080808" d="M268.2,236.2c-0.4,3.5-1.8,6.1-5.8,6c0,0-0.5,0.1-0.5,0.1s0-0.6,0-0.6c0.1-3.9,2.6-5.4,6-5.9L268.2,236.2z
			"/>
		<path fill="#080808" d="M281.9,206.1c-1.2,2.5-2.7,4.4-5.5,2c-0.5-0.5-0.9-2.2-0.5-2.5c2-1.6,3.9,0.7,5.9,0.5
			C281.8,206,281.9,206.1,281.9,206.1z"/>
		<path fill="#080808" d="M227.3,224.7c-0.7,0.8-1.3,1.5-1.8,2.1c-0.6-0.6-1.6-1.1-1.8-1.9c-0.1-0.6,0.7-1.4,1.1-2.1
			C225.6,223.3,226.3,223.9,227.3,224.7z"/>
		<path fill="#080808" d="M278.4,265.1c-0.7,0.8-1.3,1.5-1.8,2.1c-0.6-0.6-1.6-1.1-1.8-1.9c-0.1-0.6,0.7-1.4,1.1-2.1
			C276.7,263.7,277.4,264.3,278.4,265.1z"/>
		<path fill="#080808" d="M278.8,279.4c0.4,0.5,0.7,0.9,1.1,1.3c-0.6,0.4-1.3,0.8-1.9,1.2c-0.2-0.5-0.7-1.2-0.6-1.6
			C277.5,279.9,278.3,279.7,278.8,279.4z"/>
		<path fill="#080808" d="M297,280.9c-0.5,0.4-0.9,0.7-1.3,1.1c-0.4-0.6-0.8-1.3-1.2-1.9c0.5-0.2,1.2-0.7,1.6-0.6
			C296.5,279.6,296.7,280.4,297,280.9z"/>
		<path fill="#080808" d="M287,236c0.1-2.1,0.2-4.1,0.3-6.6c3.3,2.8,1.8,4.8-0.1,6.8C287.3,236.2,287,236,287,236z"/>
		<path fill="#080808" d="M301.3,297.2c-0.3,0.6-0.4,1.5-0.8,1.7c-0.4,0.2-1.2-0.4-1.8-0.7c0.3-0.6,0.4-1.5,0.8-1.7
			C300,296.4,300.7,297,301.3,297.2z"/>
		<path fill="#080808" d="M347.5,299.4c-0.3,0.8-0.6,1.4-0.8,1.9c-0.6-0.7-1.5-1.4-1.8-2.2c-0.2-0.4,0.4-1.2,0.7-1.8
			C346.2,298,346.9,298.7,347.5,299.4z"/>
		<path fill="#080808" d="M352.5,302.9c0.6,0.3,1.2,0.5,1.8,0.8c-0.3,0.6-0.4,1.5-0.8,1.7c-0.4,0.2-1.2-0.4-1.8-0.7
			C352,304.1,352.2,303.5,352.5,302.9z"/>
		<path fill="#080808" d="M341.5,295c0.3,0.6,0.8,1.2,0.7,1.7c0,0.5-0.6,1-0.9,1.5c-0.3-0.5-0.8-1.1-0.7-1.6
			C340.6,296.1,341.1,295.6,341.5,295z"/>
		<path fill="#080808" d="M272.3,257.5c-0.8,0.5-1.5,1-2.4,1.5c0,0-0.4-0.5-0.6-0.7c0.9-0.3,1.8-0.6,2.7-1
			C272.1,257.2,272.3,257.5,272.3,257.5z"/>
		<path fill="#080808" d="M267.8,235.9c0.4-0.9,0.8-1.8,1.1-2.6c0.3,0.2,0.7,0.5,0.7,0.6c-0.4,0.8-1,1.6-1.5,2.4
			C268.2,236.2,267.8,235.9,267.8,235.9z"/>
		<path fill="#080808" d="M306.1,306.2c0.3-0.9,0.7-1.8,1-2.7c0.3,0.2,0.8,0.5,0.7,0.6c-0.5,0.8-1,1.6-1.5,2.4L306.1,306.2z"/>
		<path fill="#FCFCFC" d="M212.6,214.7c1.5,0.3,2.2,1.3,2.4,2.7C213.5,217,211.7,217,212.6,214.7z"/>
		<path fill="#080808" d="M219.1,221.2c0.3,0.2,0.6,0.3,0.9,0.5C219.7,221.6,219.4,221.4,219.1,221.2
			C219.1,221.3,219.1,221.2,219.1,221.2z"/>
		<path fill="#080808" d="M272.3,276.5c0.3,0.2,0.6,0.3,0.9,0.5C272.8,276.9,272.5,276.7,272.3,276.5
			C272.2,276.5,272.3,276.5,272.3,276.5z"/>
		<path fill="#080808" d="M306.4,306.5c-0.2,0.3-0.4,0.5-0.6,0.8c0.1-0.4,0.2-0.7,0.4-1.1C306.1,306.2,306.4,306.5,306.4,306.5z"/>
	</g>
</g>
</svg>
