<svg xmlns="http://www.w3.org/2000/svg" xmlns:xlink="http://www.w3.org/1999/xlink" id="Layer_1" x="0" y="0" enable-background="new 0 0 512 512" version="1.1" viewBox="0 0 512 512" xml:space="preserve"><g><g><path fill="#FCFCFC" d="M79,401.5c-21.6,0-43.1-0.2-64.7,0.1c-4.6,0.1-5.7-0.7-5.7-5.6c0.2-97.2,0.2-194.3-0.1-291.5 c0-5.8,1.9-5.9,6.4-5.9c163.3,0.1,326.6,0.1,489.9,0c4.5,0,6.5,0.1,6.4,5.9c-0.3,97.2-0.2,194.3-0.1,291.5c0,4.8-1.1,5.6-5.7,5.5 c-22.3-0.3-44.6-0.1-66.8-0.1c0.5-3.2,3.2-2.2,5.1-2.5c13.8-1.8,27.4-4.6,39.8-11.2c12.1-6.5,20.8-15.6,21.3-30.9 c-5-0.4-8.1,2.4-11.5,4.2c-15.9,8.2-31.3,17.3-48.6,22.5c-21.3,6.4-37.1-1.7-46-22.1c-2.6-6.1-1.3-8.9,4-12.2 c21.5-13.2,42.6-26.8,64.1-40c4.9-3,6.1-4.8,1.1-9.2c-58.9-52-117.5-104.2-176.3-156.4c-2.4-2.2-4.8-5.1-8.3-1.7 c-3.8,3.7,0.4,5.9,2,8.2c9,13.3,18,26.6,27.5,39.6c3.3,4.5,2.8,7.2-0.6,11.3c-18.4,22.2-41.8,27.8-67.5,14.8 c-15-7.5-29-17-44-24.5c-20.6-10.4-31-7.2-42.8,12.6c-7.3,12.2-13.3,25.1-20.2,37.6c-8.8,16.1-16.8,20.3-34.8,17.6 c-20.2-2.9-40.4-6.4-60.6-9.6c-5-0.8-10.2-1.3-15.2-1.6c-6.8-0.4-13.1,3.3-15.7,8.2c-2.7,5,2.8,9.9,6.9,13.5 c4.3,3.9,8.9,7.6,13.4,11.3C46.2,292.7,60.6,304.3,75,316c-4.1,4.2-10.1,2.5-12.2,8.3c-4.1,10.9-9.8,21.3-13.3,32.4 c-6.5,20.1,2.1,35.1,22.4,41.5C74.2,398.8,78.1,397.3,79,401.5z M217.2,174.7c19.6-0.1,34.6-15.9,34.5-36.2 c-0.2-21.5-16.2-37.5-37.5-37.3c-19.1,0.1-35.9,16.1-36,34C178.1,158.3,194.4,174.8,217.2,174.7z"/><path fill="#040404" d="M79,401.5c-0.9-4.2-4.7-2.6-7.2-3.4c-20.3-6.4-28.9-21.3-22.4-41.5c3.6-11.1,9.3-21.4,13.3-32.4 c2.1-5.8,8.2-4,12.2-8.3c-14.4-11.7-28.8-23.3-43.1-34.9c-4.5-3.7-9.1-7.3-13.4-11.3c-4-3.7-9.5-8.5-6.9-13.5 c2.7-5,8.9-8.7,15.7-8.2c5.1,0.3,10.2,0.8,15.2,1.6c20.2,3.1,40.3,6.6,60.6,9.6c18,2.6,26-1.5,34.8-17.6 c6.8-12.5,12.9-25.4,20.2-37.6c11.8-19.8,22.2-23,42.8-12.6c15,7.5,29,17,44,24.5c25.8,13,49.1,7.3,67.5-14.8 c3.4-4.1,3.9-6.9,0.6-11.3c-9.5-13-18.5-26.3-27.5-39.6c-1.5-2.3-5.8-4.5-2-8.2c3.5-3.4,5.9-0.5,8.3,1.7 c58.7,52.1,117.4,104.4,176.3,156.4c5,4.5,3.8,6.2-1.1,9.2c-21.5,13.2-42.6,26.9-64.1,40c-5.3,3.3-6.6,6.1-4,12.2 c8.8,20.4,24.7,28.5,46,22.1c17.2-5.1,32.7-14.3,48.6-22.5c3.4-1.8,6.5-4.6,11.5-4.2c-0.6,15.3-9.3,24.5-21.3,30.9 c-12.4,6.7-26,9.4-39.8,11.2c-1.9,0.3-4.6-0.8-5.1,2.5c-2.2,0-4.4,0-6.6,0c-2.2-2.6-4.4-2-6.6,0c-7.3,0-14.6,0-21.9,0 c-4.4-1.5-8.8-3.7-13.2,0c-2.9,0-5.8,0-8.8,0c-12.8-6.6-27.3-3.9-40.6-7.8c-3.4-1-8.2,1-10.3-5c9.2-1.9,18-3.7,26.8-5.5 c3.3-0.7,7.1-1.1,4-6c-7.8-12.5-16.8-23.2-33.5-22c-7.6,0.5-15.2,1.2-22.9,1.5c-3.7,0.2-5.5,0.8-6,5.5 c-2.6,27.9-5.1,30.4-32.9,37.6c-0.4,0.1-0.6,1.1-0.9,1.8c-1.5,0-2.9,0-4.4,0c-8.8-1.7-17.5-3.2-26.3,0c-8.8,0-17.5,0-26.3,0 c-1-3.6-4.1-2.3-6.3-2.3c-17.7-0.1-35.5-0.1-53.2,0c-2.2,0-5.3-1.3-6.3,2.3c-8.8,0-17.5,0-26.3,0c-9.5-3.5-19-2.5-28.5,0 C84.8,401.5,81.9,401.5,79,401.5z M245.9,364.8c0.1-1.1,0.1-2.2,0.2-3.4c-50.8-13.9-101.6-13.3-152.3-0.1c0,1.2,0,2.3,0,3.5 C144.4,364.8,195.2,364.8,245.9,364.8z M233.4,270.6c7.9,0.3,12.6-4.5,16.9-10.3c4-5.4,4.9-9.3-3-11.8c-6.2-1.9-12.1-4.8-18.1-7.3 c-18.4-7.8-18.5-7.7-26.2,10.8c-1,2.4-2.7,5,0.5,6.5C213.1,263.3,222.1,270,233.4,270.6z"/><path fill="#FCFCFC" d="M265.4,401.5c0.3-0.6,0.5-1.6,0.9-1.8c27.8-7.2,30.3-9.7,32.9-37.6c0.4-4.6,2.3-5.3,6-5.5 c7.6-0.4,15.2-1,22.9-1.5c16.8-1.2,25.8,9.5,33.5,22c3,4.9-0.7,5.3-4,6c-8.8,1.8-17.6,3.6-26.8,5.5c2.1,6,6.9,4,10.3,5 c13.3,4,27.8,1.2,40.6,7.8C343,401.5,304.2,401.5,265.4,401.5z"/><path fill="#D7D7D7" d="M142.6,401.5c1-3.6,4.1-2.3,6.3-2.3c17.7-0.1,35.5-0.1,53.2,0c2.2,0,5.3-1.3,6.3,2.3 C186.5,401.5,164.5,401.5,142.6,401.5z"/><path fill="#D7D7D7" d="M87.7,401.5c9.5-2.5,19-3.5,28.5,0C106.8,401.5,97.3,401.5,87.7,401.5z"/><path fill="#D7D7D7" d="M234.7,401.5c8.8-3.2,17.5-1.7,26.3,0C252.3,401.5,243.5,401.5,234.7,401.5z"/><path fill="#D7D7D7" d="M390.5,401.5c4.4-3.7,8.8-1.5,13.2,0C399.3,401.5,394.9,401.5,390.5,401.5z"/><path fill="#D7D7D7" d="M425.6,401.5c2.2-2,4.4-2.6,6.6,0C430,401.5,427.8,401.5,425.6,401.5z"/><path fill="#040404" d="M217.2,174.7c-22.8,0.1-39.1-16.4-39-39.5c0.1-17.9,17-33.9,36-34c21.3-0.2,37.3,15.8,37.5,37.3 C251.8,158.9,236.9,174.6,217.2,174.7z"/><path fill="#D7D7D7" d="M245.9,364.8c-50.7,0-101.4,0-152.1,0c0-1.2,0-2.3,0-3.5c50.7-13.2,101.5-13.8,152.3,0.1 C246,362.6,245.9,363.7,245.9,364.8z"/><path fill="#FCFCFC" d="M233.4,270.6c-11.4-0.6-20.3-7.3-30-12.1c-3.2-1.6-1.5-4.1-0.5-6.5c7.6-18.5,7.8-18.6,26.2-10.8 c6,2.5,11.9,5.4,18.1,7.3c7.9,2.5,7,6.3,3,11.8C246,266.1,241.3,270.9,233.4,270.6z"/></g></g></svg>