<?xml version="1.0" encoding="utf-8"?>
<!-- Generator: Adobe Illustrator 19.1.0, SVG Export Plug-In . SVG Version: 6.00 Build 0)  -->
<!DOCTYPE svg PUBLIC "-//W3C//DTD SVG 1.1//EN" "http://www.w3.org/Graphics/SVG/1.1/DTD/svg11.dtd">
<svg version="1.1" id="Lager_1" xmlns="http://www.w3.org/2000/svg" xmlns:xlink="http://www.w3.org/1999/xlink" x="0px" y="0px"
	 viewBox="100 -292 1000 1000" style="enable-background:new 100 -292 1000 1000;" xml:space="preserve">
<style type="text/css">
	.st0{fill:#FFFFFF;}
</style>
<g>
	<path class="st0" d="M600-282c-270.6,0-490,219.4-490,490s219.4,490,490,490s490-219.4,490-490S870.6-282,600-282z M600,688.4
		c-265.3,0-480.4-215.1-480.4-480.4S334.7-272.4,600-272.4S1080.4-57.3,1080.4,208S865.3,688.4,600,688.4z"/>
	<path class="st0" d="M597.6,135.9c-50.4,0-91.3,40.9-91.3,91.3s40.9,91.3,91.3,91.3s91.3-40.9,91.3-91.3
		C688.9,176.8,648,135.9,597.6,135.9z M597.5,307.3c-45.7,0-81.6-34.9-81.6-80s36.6-81.7,81.7-81.7s81.7,36.6,81.7,81.7
		S643.2,307.3,597.5,307.3z M698.5,59.1c1.8,3.8,8,29.2,13.3,39.7l36.5,0.7c27.7,0,46.3,13.7,46.3,41.2l0.1,103.8l-1.4,1.9h11V141.7
		c0-29.1-22.1-51.4-51.2-51.4H719c-5.5-11.1-10.9-34.5-12.8-38.5c-3.5-7.3-9-16.3-23.4-21.5H512c-14.4,5.2-19.9,14.2-23.4,21.5
		c-1.9,4-7.3,27.5-12.8,38.5h-38.4c-29.1,0-51.2,22.3-51.2,51.4v192.7c0,29.1,22.1,51.4,51.2,51.4h265.8l0,0h-4.7v-10l-0.3,0.4
		H439.1c-27.7,0-43.2-15.7-43.2-43.2V145.3c0-27.5,18.6-46.1,46.3-46.1l41.4-0.7C488.9,88,495,63,496.8,59.2
		c3.4-6.9,5.4-14.3,19.1-19.2h162.9C692.4,44.7,695.1,52.2,698.5,59.1z M775.3,323.3v-38.4h-9.6v38.4h-38.4v9.6h38.4v38.4h9.6v-38.4
		h38.4v-9.6H775.3z"/>
</g>
</svg>
